<svg width="283" height="189" viewBox="0 0 283 189" fill="none" xmlns="http://www.w3.org/2000/svg">
<g clip-path="url(#clip0_811_102)">
<mask id="mask0_811_102" style="mask-type:alpha" maskUnits="userSpaceOnUse" x="0" y="0" width="283" height="189">
<rect width="283" height="189" fill="url(#paint0_radial_811_102)"/>
</mask>
<g mask="url(#mask0_811_102)">
<g opacity="0.8">
<path d="M202.979 330.291C331.121 295.955 407.644 166.025 373.898 40.0842C340.152 -85.857 208.916 -160.118 80.7741 -125.783C-47.3678 -91.4471 -123.891 38.4829 -90.145 164.424C-56.3992 290.365 74.8368 364.626 202.979 330.291Z" fill="#1D1B28" stroke="#4BBEFF" stroke-linecap="round" stroke-linejoin="round"/>
<path d="M197.348 309.276C313.68 278.104 383.151 160.148 352.515 45.8137C321.879 -68.5211 202.738 -135.938 86.4052 -104.767C-29.9274 -73.596 -99.3983 44.3599 -68.7624 158.695C-38.1265 273.029 81.015 340.447 197.348 309.276Z" fill="#1D1B28" stroke="#4BBEFF" stroke-linecap="round" stroke-linejoin="round"/>
<path d="M192.631 291.672C299.071 263.151 362.635 155.225 334.604 50.613C306.573 -53.9995 197.562 -115.684 91.122 -87.1635C-15.3184 -58.6428 -78.882 49.2829 -50.8512 153.895C-22.8203 258.508 86.1902 320.192 192.631 291.672Z" fill="#1D1B28" stroke="#4BBEFF" stroke-linecap="round" stroke-linejoin="round"/>
<path d="M187.913 274.068C284.462 248.198 342.118 150.303 316.693 55.4122C291.267 -39.4782 192.387 -95.4302 95.8385 -69.5601C-0.709996 -43.69 -58.3663 54.2057 -32.9405 149.096C-7.51473 243.986 91.365 299.938 187.913 274.068Z" fill="#1D1B28" stroke="#4BBEFF" stroke-linecap="round" stroke-linejoin="round"/>
<path d="M184.376 260.866C273.506 236.984 326.732 146.61 303.26 59.0116C279.788 -28.5872 188.506 -80.2398 99.3765 -56.3576C10.2469 -32.4754 -42.979 57.8978 -19.5069 145.497C3.96509 233.096 95.2467 284.748 184.376 260.866Z" fill="#1D1B28" stroke="#4BBEFF" stroke-linecap="round" stroke-linejoin="round"/>
<path d="M181.114 248.69C263.402 226.642 312.542 143.206 290.871 62.331C269.201 -18.5436 184.927 -66.2312 102.639 -44.1822C20.351 -22.1333 -28.7892 61.3027 -7.11894 142.177C14.5513 223.052 98.826 270.739 181.114 248.69Z" fill="#1D1B28" stroke="#4BBEFF" stroke-linecap="round" stroke-linejoin="round"/>
<path d="M178.063 237.306C253.954 216.971 299.273 140.022 279.288 65.4348C259.302 -9.1522 181.58 -53.1323 105.689 -32.7976C29.7989 -12.4628 -15.5209 64.4865 4.46459 139.073C24.4501 213.661 102.173 257.641 178.063 237.306Z" fill="#1D1B28" stroke="#4BBEFF" stroke-linecap="round" stroke-linejoin="round"/>
<path d="M171.988 214.633C234.053 198.003 270.885 134.207 254.255 72.1423C237.625 10.0771 173.829 -26.7551 111.764 -10.1248C49.699 6.50555 12.8668 70.3008 29.4971 132.366C46.1274 194.431 109.923 231.263 171.988 214.633Z" fill="#1D1B28" stroke="#4BBEFF" stroke-linecap="round" stroke-linejoin="round"/>
<path d="M174.28 223.187C242.237 204.978 282.819 136.073 264.922 69.2841C247.026 2.49467 177.429 -36.8876 109.473 -18.6787C41.5161 -0.469858 0.934219 68.4348 18.8304 135.224C36.7265 202.014 106.324 241.396 174.28 223.187Z" fill="#1D1B28" stroke="#4BBEFF" stroke-linecap="round" stroke-linejoin="round"/>
<path d="M171.294 212.042C232.988 195.511 269.83 132.957 253.583 72.3225C237.336 11.6883 174.153 -24.0646 112.459 -7.53382C50.7651 8.99697 13.9231 71.5516 30.17 132.186C46.4169 192.82 109.6 228.573 171.294 212.042Z" fill="#1D1B28" stroke="#4BBEFF" stroke-linecap="round" stroke-linejoin="round"/>
<path d="M168.793 202.706C225.24 187.581 258.949 130.346 244.084 74.8677C229.219 19.3894 171.408 -13.3233 114.96 1.80181C58.5126 16.9269 24.8034 74.1623 39.6688 129.641C54.5342 185.119 112.345 217.832 168.793 202.706Z" fill="#1D1B28" stroke="#4BBEFF" stroke-linecap="round" stroke-linejoin="round"/>
<path d="M166.291 193.371C217.493 179.651 248.069 127.735 234.585 77.4128C221.101 27.0903 168.663 -2.58224 117.461 11.1372C66.2597 24.8567 35.6833 76.7729 49.1671 127.095C62.651 177.418 115.089 207.09 166.291 193.371Z" fill="#1D1B28" stroke="#4BBEFF" stroke-linecap="round" stroke-linejoin="round"/>
<path d="M164.415 186.369C211.683 173.704 239.91 125.777 227.462 79.3216C215.014 32.866 166.605 5.47356 119.338 18.1388C72.0707 30.8041 43.8438 78.731 56.2916 125.187C68.7393 171.642 117.148 199.035 164.415 186.369Z" fill="#1D1B28" stroke="#4BBEFF" stroke-linecap="round" stroke-linejoin="round"/>
<path d="M162.685 179.912C206.324 168.219 232.384 123.971 220.892 81.0819C209.4 38.1924 164.707 12.9026 121.068 24.5956C77.4291 36.2887 51.369 80.5366 62.8612 123.426C74.3535 166.316 119.046 191.605 162.685 179.912Z" fill="#1D1B28" stroke="#4BBEFF" stroke-linecap="round" stroke-linejoin="round"/>
<path d="M161.067 173.875C201.314 163.091 225.348 122.283 214.749 82.728C204.15 43.1728 162.932 19.8492 122.686 30.6332C82.4396 41.4171 58.4055 82.225 69.0042 121.78C79.603 161.335 120.821 184.659 161.067 173.875Z" fill="#1D1B28" stroke="#4BBEFF" stroke-linecap="round" stroke-linejoin="round"/>
<path d="M159.338 167.419C195.956 157.607 217.824 120.478 208.18 84.4881C198.537 48.4985 161.034 27.2773 124.416 37.0892C87.7974 46.9011 65.9298 84.0305 75.5732 120.02C85.2165 156.01 122.719 177.231 159.338 167.419Z" fill="#1D1B28" stroke="#4BBEFF" stroke-linecap="round" stroke-linejoin="round"/>
<path d="M157.845 161.851C190.76 153.032 210.293 119.2 201.474 86.2851C192.654 53.3706 158.822 33.8376 125.908 42.657C92.993 51.4765 73.4601 85.3085 82.2795 118.223C91.0989 151.138 124.931 170.67 157.845 161.851Z" fill="#1D1B28" stroke="#4BBEFF" stroke-linecap="round" stroke-linejoin="round"/>
<path d="M156.128 155.441C185.503 147.57 202.935 117.377 195.064 88.0025C187.193 58.628 157 41.1959 127.625 49.0667C98.2505 56.9376 80.8184 87.131 88.6892 116.506C96.5601 145.88 126.753 163.312 156.128 155.441Z" stroke="#4BBEFF" stroke-linecap="round" stroke-linejoin="round"/>
<g filter="url(#filter0_d_811_102)">
<path d="M178.581 61.9448C167.191 73.3334 152.992 81.506 137.423 85.6331C121.877 89.8432 105.493 89.8654 89.9353 85.6973" stroke="#D2EFFF" stroke-linecap="round" stroke-linejoin="round" shape-rendering="crispEdges"/>
</g>
<g filter="url(#filter1_d_811_102)">
<path d="M105.202 142.674C116.581 131.322 130.742 123.157 146.268 118.997C161.793 114.836 178.14 114.827 193.67 118.969" stroke="#D2EFFF" stroke-linecap="round" stroke-linejoin="round" shape-rendering="crispEdges"/>
</g>
<g filter="url(#filter2_d_811_102)">
<path d="M149.48 157.223C133.86 144.962 122.638 127.966 117.499 108.786C112.36 89.6058 113.58 69.276 120.977 50.8482" stroke="#D2EFFF" stroke-linecap="round" stroke-linejoin="round" shape-rendering="crispEdges"/>
</g>
<g filter="url(#filter3_d_811_102)">
<path d="M134.274 47.2854C149.893 59.546 161.115 76.5419 166.254 95.7222C171.394 114.902 170.173 135.232 162.777 153.66" stroke="#D2EFFF" stroke-linecap="round" stroke-linejoin="round" shape-rendering="crispEdges"/>
</g>
</g>
<g filter="url(#filter4_f_811_102)">
<ellipse cx="141.5" cy="112.5" rx="141.5" ry="94.5" fill="url(#paint1_radial_811_102)"/>
</g>
</g>
<mask id="mask1_811_102" style="mask-type:alpha" maskUnits="userSpaceOnUse" x="88" y="42" width="127" height="127">
<circle cx="151.5" cy="105.5" r="63.5" fill="url(#paint2_radial_811_102)"/>
</mask>
<g mask="url(#mask1_811_102)">
<path opacity="0.47" d="M156.39 156.046C186.104 148.085 203.737 117.542 195.775 87.8282C187.814 58.1141 157.271 40.4805 127.557 48.4424C97.8431 56.4042 80.2094 86.9466 88.1713 116.661C96.1331 146.375 126.675 164.008 156.39 156.046Z" stroke="white" stroke-width="0.4" stroke-linecap="round" stroke-linejoin="round"/>
<mask id="path-27-outside-1_811_102" maskUnits="userSpaceOnUse" x="88.7106" y="60.6612" width="94.4205" height="37.852" fill="black">
<rect fill="white" x="88.7106" y="60.6612" width="94.4205" height="37.852"/>
<path d="M178.581 61.9448C167.191 73.3334 152.992 81.506 137.423 85.6331C121.877 89.8432 105.493 89.8654 89.9353 85.6973"/>
</mask>
<path d="M178.864 62.2277C179.02 62.0715 179.02 61.8182 178.864 61.662C178.707 61.5058 178.454 61.5058 178.298 61.662L178.864 62.2277ZM137.423 85.6331L137.321 85.2464L137.318 85.247L137.423 85.6331ZM90.0388 85.3109C89.8254 85.2538 89.6061 85.3804 89.5489 85.5938C89.4918 85.8072 89.6184 86.0265 89.8318 86.0837L90.0388 85.3109ZM178.298 61.662C166.958 73.0006 152.821 81.1374 137.321 85.2464L137.526 86.0197C153.162 81.8745 167.424 73.6661 178.864 62.2277L178.298 61.662ZM137.318 85.247C121.84 89.4387 105.528 89.4608 90.0388 85.3109L89.8318 86.0837C105.458 90.27 121.913 90.2478 137.528 86.0192L137.318 85.247Z" fill="#D2EFFF" mask="url(#path-27-outside-1_811_102)"/>
<mask id="path-29-outside-2_811_102" maskUnits="userSpaceOnUse" x="100.809" y="106.072" width="93.4546" height="37.5931" fill="black">
<rect fill="white" x="100.809" y="106.072" width="93.4546" height="37.5931"/>
<path d="M105.202 142.674C116.581 131.322 130.742 123.157 146.268 118.997C161.793 114.836 178.14 114.827 193.67 118.969"/>
</mask>
<path d="M104.919 142.391C104.763 142.547 104.763 142.8 104.919 142.957C105.075 143.113 105.328 143.113 105.484 142.957L104.919 142.391ZM146.268 118.997L146.371 119.383L146.268 118.997ZM193.567 119.356C193.781 119.413 194 119.286 194.057 119.072C194.114 118.859 193.987 118.64 193.773 118.583L193.567 119.356ZM105.484 142.957C116.814 131.654 130.913 123.525 146.371 119.383L146.164 118.61C130.571 122.788 116.348 130.989 104.919 142.391L105.484 142.957ZM146.371 119.383C161.829 115.241 178.104 115.232 193.567 119.356L193.773 118.583C178.175 114.422 161.758 114.432 146.164 118.61L146.371 119.383Z" fill="#D2EFFF" mask="url(#path-29-outside-2_811_102)"/>
<mask id="path-31-outside-3_811_102" maskUnits="userSpaceOnUse" x="102.023" y="49.7152" width="48.3062" height="113.36" fill="black">
<rect fill="white" x="102.023" y="49.7152" width="48.3062" height="113.36"/>
<path d="M149.48 157.223C133.86 144.962 122.638 127.966 117.499 108.786C112.36 89.6058 113.58 69.276 120.977 50.8482"/>
</mask>
<path d="M149.233 157.537C149.406 157.674 149.658 157.644 149.794 157.47C149.931 157.296 149.9 157.045 149.727 156.908L149.233 157.537ZM117.499 108.786L117.113 108.89L117.499 108.786ZM121.348 50.9972C121.43 50.7922 121.331 50.5593 121.126 50.477C120.921 50.3947 120.688 50.4942 120.605 50.6992L121.348 50.9972ZM149.727 156.908C134.175 144.701 123.002 127.779 117.885 108.682L117.113 108.89C122.274 128.153 133.545 145.223 149.233 157.537L149.727 156.908ZM117.885 108.682C112.768 89.5858 113.983 69.3447 121.348 50.9972L120.605 50.6992C113.177 69.2073 111.951 89.6257 117.113 108.89L117.885 108.682Z" fill="#D2EFFF" mask="url(#path-31-outside-3_811_102)"/>
<mask id="path-33-outside-4_811_102" maskUnits="userSpaceOnUse" x="133.049" y="41.4019" width="48.3062" height="113.36" fill="black">
<rect fill="white" x="133.049" y="41.4019" width="48.3062" height="113.36"/>
<path d="M134.274 47.2854C149.893 59.546 161.115 76.5419 166.254 95.7222C171.394 114.902 170.173 135.232 162.777 153.66"/>
</mask>
<path d="M134.521 46.9707C134.347 46.8343 134.095 46.8646 133.959 47.0384C133.823 47.2122 133.853 47.4636 134.027 47.6L134.521 46.9707ZM166.254 95.7222L166.641 95.6186L166.254 95.7222ZM162.405 153.511C162.323 153.716 162.423 153.949 162.628 154.031C162.833 154.113 163.066 154.014 163.148 153.809L162.405 153.511ZM134.027 47.6C149.578 59.8072 160.751 76.729 165.868 95.8257L166.641 95.6186C161.479 76.3548 150.208 59.2848 134.521 46.9707L134.027 47.6ZM165.868 95.8257C170.985 114.922 169.77 135.163 162.405 153.511L163.148 153.809C170.577 135.301 171.802 114.882 166.641 95.6186L165.868 95.8257Z" fill="#D2EFFF" mask="url(#path-33-outside-4_811_102)"/>
</g>
<rect x="76.5" y="97.5" width="130" height="51" rx="5.5" fill="#18171F" stroke="url(#paint3_linear_811_102)"/>
<line x1="88" y1="123.75" x2="196" y2="123.75" stroke="white" stroke-opacity="0.27" stroke-width="0.5"/>
<path d="M109.808 117V115.978H112.034V108.222H109.808V107.2H115.436V108.222H113.21V115.978H115.436V117H109.808ZM121.114 117.168C120.424 117.168 119.822 117.037 119.308 116.776C118.804 116.515 118.412 116.151 118.132 115.684C117.862 115.217 117.722 114.671 117.712 114.046H118.944C118.954 114.606 119.14 115.091 119.504 115.502C119.878 115.903 120.414 116.104 121.114 116.104C121.758 116.104 122.253 115.95 122.598 115.642C122.953 115.325 123.13 114.947 123.13 114.508C123.13 114.144 123.046 113.841 122.878 113.598C122.71 113.346 122.435 113.127 122.052 112.94C121.679 112.744 121.175 112.543 120.54 112.338C119.644 112.067 118.991 111.699 118.58 111.232C118.17 110.765 117.964 110.187 117.964 109.496C117.964 109.029 118.086 108.609 118.328 108.236C118.571 107.863 118.921 107.569 119.378 107.354C119.836 107.139 120.391 107.032 121.044 107.032C121.66 107.032 122.197 107.149 122.654 107.382C123.121 107.606 123.48 107.923 123.732 108.334C123.994 108.745 124.124 109.216 124.124 109.748H122.892C122.892 109.487 122.822 109.23 122.682 108.978C122.542 108.726 122.332 108.516 122.052 108.348C121.772 108.18 121.418 108.096 120.988 108.096C120.475 108.096 120.046 108.222 119.7 108.474C119.355 108.717 119.182 109.053 119.182 109.482C119.182 109.809 119.257 110.084 119.406 110.308C119.565 110.532 119.822 110.737 120.176 110.924C120.531 111.101 121.012 111.293 121.618 111.498C122.188 111.685 122.673 111.904 123.074 112.156C123.485 112.399 123.798 112.702 124.012 113.066C124.236 113.43 124.348 113.883 124.348 114.424C124.348 114.956 124.213 115.427 123.942 115.838C123.672 116.249 123.294 116.575 122.808 116.818C122.323 117.051 121.758 117.168 121.114 117.168ZM129.411 117.168C128.618 117.168 127.936 116.958 127.367 116.538C126.798 116.118 126.359 115.53 126.051 114.774C125.752 114.009 125.603 113.117 125.603 112.1C125.603 111.083 125.752 110.196 126.051 109.44C126.359 108.675 126.798 108.082 127.367 107.662C127.936 107.242 128.618 107.032 129.411 107.032C130.204 107.032 130.886 107.242 131.455 107.662C132.024 108.082 132.458 108.675 132.757 109.44C133.065 110.196 133.219 111.083 133.219 112.1C133.219 113.117 133.065 114.009 132.757 114.774C132.458 115.53 132.024 116.118 131.455 116.538C130.886 116.958 130.204 117.168 129.411 117.168ZM129.411 116.062C130.186 116.062 130.811 115.717 131.287 115.026C131.772 114.335 132.015 113.36 132.015 112.1C132.015 110.84 131.772 109.865 131.287 109.174C130.811 108.483 130.186 108.138 129.411 108.138C128.627 108.138 127.997 108.483 127.521 109.174C127.045 109.865 126.807 110.84 126.807 112.1C126.807 113.36 127.045 114.335 127.521 115.026C127.997 115.717 128.627 116.062 129.411 116.062ZM146.032 117.168C145.435 117.168 144.903 117.051 144.436 116.818C143.979 116.575 143.61 116.253 143.33 115.852C143.059 115.441 142.901 114.984 142.854 114.48H143.988C144.072 114.975 144.291 115.371 144.646 115.67C145.01 115.959 145.472 116.104 146.032 116.104C146.769 116.104 147.371 115.773 147.838 115.11C148.305 114.438 148.571 113.393 148.636 111.974H148.552C148.3 112.413 147.978 112.772 147.586 113.052C147.194 113.332 146.643 113.472 145.934 113.472C145.346 113.472 144.819 113.337 144.352 113.066C143.885 112.795 143.512 112.422 143.232 111.946C142.961 111.47 142.826 110.929 142.826 110.322C142.826 109.725 142.957 109.179 143.218 108.684C143.489 108.18 143.867 107.779 144.352 107.48C144.847 107.181 145.421 107.032 146.074 107.032C147.306 107.032 148.225 107.452 148.832 108.292C149.439 109.132 149.742 110.275 149.742 111.722C149.742 112.795 149.597 113.743 149.308 114.564C149.019 115.376 148.599 116.015 148.048 116.482C147.497 116.939 146.825 117.168 146.032 117.168ZM146.158 112.408C146.811 112.408 147.334 112.203 147.726 111.792C148.118 111.381 148.314 110.868 148.314 110.252C148.314 109.636 148.118 109.123 147.726 108.712C147.334 108.301 146.811 108.096 146.158 108.096C145.505 108.096 144.982 108.301 144.59 108.712C144.207 109.123 144.016 109.636 144.016 110.252C144.016 110.877 144.207 111.395 144.59 111.806C144.982 112.207 145.505 112.408 146.158 112.408ZM154.595 117.168C153.857 117.168 153.204 116.963 152.635 116.552C152.075 116.141 151.636 115.558 151.319 114.802C151.011 114.046 150.857 113.145 150.857 112.1C150.857 111.055 151.011 110.154 151.319 109.398C151.636 108.642 152.075 108.059 152.635 107.648C153.204 107.237 153.857 107.032 154.595 107.032C155.341 107.032 155.995 107.237 156.555 107.648C157.115 108.059 157.549 108.642 157.857 109.398C158.174 110.154 158.333 111.055 158.333 112.1C158.333 113.145 158.174 114.046 157.857 114.802C157.549 115.558 157.115 116.141 156.555 116.552C155.995 116.963 155.341 117.168 154.595 117.168ZM152.061 112.1C152.061 112.735 152.126 113.309 152.257 113.822C152.397 114.326 152.588 114.751 152.831 115.096L155.547 108.362C155.257 108.203 154.94 108.124 154.595 108.124C154.1 108.124 153.661 108.287 153.279 108.614C152.896 108.931 152.597 109.389 152.383 109.986C152.168 110.574 152.061 111.279 152.061 112.1ZM154.595 116.09C155.089 116.09 155.528 115.931 155.911 115.614C156.293 115.287 156.592 114.825 156.807 114.228C157.021 113.631 157.129 112.921 157.129 112.1C157.129 111.465 157.059 110.896 156.919 110.392C156.788 109.879 156.601 109.449 156.359 109.104L153.629 115.852C153.927 116.011 154.249 116.09 154.595 116.09ZM162.989 117.168C162.252 117.168 161.598 116.963 161.029 116.552C160.469 116.141 160.03 115.558 159.713 114.802C159.405 114.046 159.251 113.145 159.251 112.1C159.251 111.055 159.405 110.154 159.713 109.398C160.03 108.642 160.469 108.059 161.029 107.648C161.598 107.237 162.252 107.032 162.989 107.032C163.736 107.032 164.389 107.237 164.949 107.648C165.509 108.059 165.943 108.642 166.251 109.398C166.568 110.154 166.727 111.055 166.727 112.1C166.727 113.145 166.568 114.046 166.251 114.802C165.943 115.558 165.509 116.141 164.949 116.552C164.389 116.963 163.736 117.168 162.989 117.168ZM160.455 112.1C160.455 112.735 160.52 113.309 160.651 113.822C160.791 114.326 160.982 114.751 161.225 115.096L163.941 108.362C163.652 108.203 163.334 108.124 162.989 108.124C162.494 108.124 162.056 108.287 161.673 108.614C161.29 108.931 160.992 109.389 160.777 109.986C160.562 110.574 160.455 111.279 160.455 112.1ZM162.989 116.09C163.484 116.09 163.922 115.931 164.305 115.614C164.688 115.287 164.986 114.825 165.201 114.228C165.416 113.631 165.523 112.921 165.523 112.1C165.523 111.465 165.453 110.896 165.313 110.392C165.182 109.879 164.996 109.449 164.753 109.104L162.023 115.852C162.322 116.011 162.644 116.09 162.989 116.09ZM168.164 117V115.936H170.698V108.586L168.304 109.048V108.152L171.09 107.2H171.874V115.936H174.548V117H168.164Z" fill="url(#paint4_linear_811_102)"/>
<path d="M97.5089 136.096C96.9596 136.096 96.4849 135.976 96.0849 135.736C95.6903 135.491 95.3836 135.152 95.1649 134.72C94.9463 134.283 94.8369 133.776 94.8369 133.2C94.8369 132.629 94.9463 132.128 95.1649 131.696C95.3836 131.259 95.6903 130.917 96.0849 130.672C96.4849 130.427 96.9596 130.304 97.5089 130.304C98.1489 130.304 98.6689 130.459 99.0689 130.768C99.4743 131.072 99.7329 131.499 99.8449 132.048H99.1009C99.0156 131.701 98.8396 131.424 98.5729 131.216C98.3116 131.003 97.9569 130.896 97.5089 130.896C97.1089 130.896 96.7596 130.989 96.4609 131.176C96.1623 131.357 95.9303 131.621 95.7649 131.968C95.6049 132.309 95.5249 132.72 95.5249 133.2C95.5249 133.68 95.6049 134.093 95.7649 134.44C95.9303 134.781 96.1623 135.045 96.4609 135.232C96.7596 135.413 97.1089 135.504 97.5089 135.504C97.9569 135.504 98.3116 135.403 98.5729 135.2C98.8396 134.992 99.0156 134.717 99.1009 134.376H99.8449C99.7329 134.915 99.4743 135.336 99.0689 135.64C98.6689 135.944 98.1489 136.096 97.5089 136.096ZM102.555 136.096C102.176 136.096 101.84 136.011 101.547 135.84C101.253 135.664 101.021 135.421 100.851 135.112C100.685 134.803 100.603 134.437 100.603 134.016C100.603 133.6 100.685 133.237 100.851 132.928C101.016 132.613 101.245 132.371 101.539 132.2C101.837 132.024 102.181 131.936 102.571 131.936C102.955 131.936 103.285 132.024 103.563 132.2C103.845 132.371 104.061 132.597 104.211 132.88C104.36 133.163 104.435 133.467 104.435 133.792C104.435 133.851 104.432 133.909 104.427 133.968C104.427 134.027 104.427 134.093 104.427 134.168H101.267C101.283 134.472 101.352 134.725 101.475 134.928C101.603 135.125 101.76 135.275 101.947 135.376C102.139 135.477 102.341 135.528 102.555 135.528C102.832 135.528 103.064 135.464 103.251 135.336C103.437 135.208 103.573 135.035 103.659 134.816H104.323C104.216 135.184 104.011 135.491 103.707 135.736C103.408 135.976 103.024 136.096 102.555 136.096ZM102.555 132.504C102.235 132.504 101.949 132.603 101.699 132.8C101.453 132.992 101.312 133.275 101.275 133.648H103.771C103.755 133.291 103.632 133.011 103.403 132.808C103.173 132.605 102.891 132.504 102.555 132.504ZM105.325 136V132.032H105.933L105.989 132.792C106.112 132.531 106.299 132.323 106.549 132.168C106.8 132.013 107.109 131.936 107.477 131.936V132.64H107.293C107.059 132.64 106.843 132.683 106.645 132.768C106.448 132.848 106.291 132.987 106.173 133.184C106.056 133.381 105.997 133.653 105.997 134V136H105.325ZM109.8 136C109.437 136 109.152 135.912 108.944 135.736C108.736 135.56 108.632 135.243 108.632 134.784V132.6H107.944V132.032H108.632L108.72 131.08H109.304V132.032H110.472V132.6H109.304V134.784C109.304 135.035 109.354 135.205 109.456 135.296C109.557 135.381 109.736 135.424 109.992 135.424H110.408V136H109.8ZM111.733 131.152C111.6 131.152 111.488 131.109 111.397 131.024C111.312 130.933 111.269 130.821 111.269 130.688C111.269 130.56 111.312 130.453 111.397 130.368C111.488 130.283 111.6 130.24 111.733 130.24C111.861 130.24 111.971 130.283 112.061 130.368C112.152 130.453 112.197 130.56 112.197 130.688C112.197 130.821 112.152 130.933 112.061 131.024C111.971 131.109 111.861 131.152 111.733 131.152ZM111.397 136V132.032H112.069V136H111.397ZM113.456 136V132.6H112.856V132.032H113.456V131.344C113.456 130.96 113.552 130.68 113.743 130.504C113.936 130.328 114.216 130.24 114.584 130.24H114.984V130.816H114.688C114.485 130.816 114.341 130.859 114.256 130.944C114.17 131.024 114.128 131.163 114.128 131.36V132.032H116.592V136H115.92V132.6H114.128V136H113.456ZM116.264 131.272C116.136 131.272 116.026 131.229 115.936 131.144C115.845 131.053 115.8 130.941 115.8 130.808C115.8 130.68 115.845 130.573 115.936 130.488C116.026 130.403 116.136 130.36 116.264 130.36C116.397 130.36 116.506 130.403 116.592 130.488C116.682 130.573 116.727 130.68 116.727 130.808C116.727 130.941 116.682 131.053 116.592 131.144C116.506 131.229 116.397 131.272 116.264 131.272ZM119.603 136.096C119.224 136.096 118.883 136.011 118.579 135.84C118.28 135.664 118.043 135.421 117.867 135.112C117.696 134.797 117.611 134.432 117.611 134.016C117.611 133.6 117.696 133.237 117.867 132.928C118.043 132.613 118.28 132.371 118.579 132.2C118.883 132.024 119.224 131.936 119.603 131.936C120.072 131.936 120.467 132.059 120.787 132.304C121.112 132.549 121.317 132.877 121.403 133.288H120.715C120.661 133.043 120.531 132.853 120.323 132.72C120.115 132.581 119.872 132.512 119.595 132.512C119.371 132.512 119.16 132.568 118.963 132.68C118.765 132.792 118.605 132.96 118.483 133.184C118.36 133.408 118.299 133.685 118.299 134.016C118.299 134.347 118.36 134.624 118.483 134.848C118.605 135.072 118.765 135.243 118.963 135.36C119.16 135.472 119.371 135.528 119.595 135.528C119.872 135.528 120.115 135.461 120.323 135.328C120.531 135.189 120.661 134.995 120.715 134.744H121.403C121.323 135.144 121.12 135.469 120.795 135.72C120.469 135.971 120.072 136.096 119.603 136.096ZM123.661 136.096C123.33 136.096 123.056 136.04 122.837 135.928C122.618 135.816 122.456 135.667 122.349 135.48C122.242 135.293 122.189 135.091 122.189 134.872C122.189 134.467 122.344 134.155 122.653 133.936C122.962 133.717 123.384 133.608 123.917 133.608H124.989V133.56C124.989 133.213 124.898 132.952 124.717 132.776C124.536 132.595 124.293 132.504 123.989 132.504C123.728 132.504 123.501 132.571 123.309 132.704C123.122 132.832 123.005 133.021 122.957 133.272H122.269C122.296 132.984 122.392 132.741 122.557 132.544C122.728 132.347 122.938 132.197 123.189 132.096C123.44 131.989 123.706 131.936 123.989 131.936C124.544 131.936 124.96 132.085 125.237 132.384C125.52 132.677 125.661 133.069 125.661 133.56V136H125.061L125.021 135.288C124.909 135.512 124.744 135.704 124.525 135.864C124.312 136.019 124.024 136.096 123.661 136.096ZM123.765 135.528C124.021 135.528 124.24 135.461 124.421 135.328C124.608 135.195 124.749 135.021 124.845 134.808C124.941 134.595 124.989 134.371 124.989 134.136V134.128H123.973C123.578 134.128 123.298 134.197 123.133 134.336C122.973 134.469 122.893 134.637 122.893 134.84C122.893 135.048 122.968 135.216 123.117 135.344C123.272 135.467 123.488 135.528 123.765 135.528ZM128.493 136.096C128.115 136.096 127.773 136.011 127.469 135.84C127.171 135.664 126.933 135.421 126.757 135.112C126.587 134.797 126.501 134.432 126.501 134.016C126.501 133.6 126.587 133.237 126.757 132.928C126.933 132.613 127.171 132.371 127.469 132.2C127.773 132.024 128.115 131.936 128.493 131.936C128.963 131.936 129.357 132.059 129.677 132.304C130.003 132.549 130.208 132.877 130.293 133.288H129.605C129.552 133.043 129.421 132.853 129.213 132.72C129.005 132.581 128.763 132.512 128.485 132.512C128.261 132.512 128.051 132.568 127.853 132.68C127.656 132.792 127.496 132.96 127.373 133.184C127.251 133.408 127.189 133.685 127.189 134.016C127.189 134.347 127.251 134.624 127.373 134.848C127.496 135.072 127.656 135.243 127.853 135.36C128.051 135.472 128.261 135.528 128.485 135.528C128.763 135.528 129.005 135.461 129.213 135.328C129.421 135.189 129.552 134.995 129.605 134.744H130.293C130.213 135.144 130.011 135.469 129.685 135.72C129.36 135.971 128.963 136.096 128.493 136.096ZM127.917 138.08V137.656H128.653C129.016 137.656 129.197 137.528 129.197 137.272C129.197 137.032 129.016 136.912 128.653 136.912H128.261V135.952H128.709V136.512C129.013 136.507 129.261 136.568 129.453 136.696C129.645 136.824 129.741 137.019 129.741 137.28C129.741 137.531 129.651 137.725 129.469 137.864C129.288 138.008 129.059 138.08 128.781 138.08H127.917ZM132.552 136.096C132.221 136.096 131.946 136.04 131.728 135.928C131.509 135.816 131.346 135.667 131.24 135.48C131.133 135.293 131.08 135.091 131.08 134.872C131.08 134.467 131.234 134.155 131.544 133.936C131.853 133.717 132.274 133.608 132.808 133.608H133.88V133.56C133.88 133.213 133.789 132.952 133.608 132.776C133.426 132.595 133.184 132.504 132.88 132.504C132.618 132.504 132.392 132.571 132.2 132.704C132.013 132.832 131.896 133.021 131.848 133.272H131.16C131.186 132.984 131.282 132.741 131.448 132.544C131.618 132.347 131.829 132.197 132.08 132.096C132.33 131.989 132.597 131.936 132.88 131.936C133.434 131.936 133.85 132.085 134.128 132.384C134.41 132.677 134.552 133.069 134.552 133.56V136H133.952L133.912 135.288C133.8 135.512 133.634 135.704 133.416 135.864C133.202 136.019 132.914 136.096 132.552 136.096ZM132.656 135.528C132.912 135.528 133.13 135.461 133.312 135.328C133.498 135.195 133.64 135.021 133.736 134.808C133.832 134.595 133.88 134.371 133.88 134.136V134.128H132.864C132.469 134.128 132.189 134.197 132.024 134.336C131.864 134.469 131.784 134.637 131.784 134.84C131.784 135.048 131.858 135.216 132.008 135.344C132.162 135.467 132.378 135.528 132.656 135.528ZM133.288 131.584C133.144 131.584 133.024 131.552 132.928 131.488C132.837 131.424 132.749 131.363 132.664 131.304C132.578 131.24 132.482 131.208 132.376 131.208C132.178 131.208 132.064 131.328 132.032 131.568H131.64C131.677 131.296 131.762 131.093 131.896 130.96C132.034 130.827 132.202 130.76 132.4 130.76C132.544 130.76 132.661 130.792 132.752 130.856C132.848 130.92 132.938 130.984 133.024 131.048C133.109 131.107 133.208 131.136 133.32 131.136C133.41 131.136 133.488 131.107 133.552 131.048C133.616 130.989 133.656 130.899 133.672 130.776H134.056C134.029 131.037 133.944 131.237 133.8 131.376C133.661 131.515 133.49 131.584 133.288 131.584ZM137.368 136.096C136.994 136.096 136.658 136.011 136.36 135.84C136.061 135.669 135.824 135.429 135.648 135.12C135.477 134.805 135.392 134.437 135.392 134.016C135.392 133.595 135.48 133.229 135.656 132.92C135.832 132.605 136.069 132.363 136.368 132.192C136.672 132.021 137.01 131.936 137.384 131.936C137.757 131.936 138.093 132.021 138.392 132.192C138.69 132.363 138.925 132.605 139.096 132.92C139.272 133.229 139.36 133.595 139.36 134.016C139.36 134.437 139.272 134.805 139.096 135.12C138.92 135.429 138.68 135.669 138.376 135.84C138.077 136.011 137.741 136.096 137.368 136.096ZM137.368 135.52C137.597 135.52 137.81 135.464 138.008 135.352C138.205 135.24 138.365 135.072 138.488 134.848C138.61 134.624 138.672 134.347 138.672 134.016C138.672 133.685 138.61 133.408 138.488 133.184C138.37 132.96 138.213 132.792 138.016 132.68C137.818 132.568 137.608 132.512 137.384 132.512C137.154 132.512 136.941 132.568 136.744 132.68C136.546 132.792 136.386 132.96 136.264 133.184C136.141 133.408 136.08 133.685 136.08 134.016C136.08 134.347 136.141 134.624 136.264 134.848C136.386 135.072 136.544 135.24 136.736 135.352C136.933 135.464 137.144 135.52 137.368 135.52ZM142.451 136V130.4H143.123V136H142.451ZM144.271 136V132.032H144.879L144.919 132.744C145.047 132.493 145.231 132.296 145.471 132.152C145.711 132.008 145.983 131.936 146.287 131.936C146.756 131.936 147.129 132.08 147.407 132.368C147.689 132.651 147.831 133.088 147.831 133.68V136H147.159V133.752C147.159 132.925 146.817 132.512 146.135 132.512C145.793 132.512 145.508 132.637 145.279 132.888C145.055 133.133 144.943 133.485 144.943 133.944V136H144.271ZM150.417 136C150.054 136 149.769 135.912 149.561 135.736C149.353 135.56 149.249 135.243 149.249 134.784V132.6H148.561V132.032H149.249L149.337 131.08H149.921V132.032H151.089V132.6H149.921V134.784C149.921 135.035 149.972 135.205 150.073 135.296C150.174 135.381 150.353 135.424 150.609 135.424H151.025V136H150.417ZM153.617 136.096C153.239 136.096 152.903 136.011 152.609 135.84C152.316 135.664 152.084 135.421 151.913 135.112C151.748 134.803 151.665 134.437 151.665 134.016C151.665 133.6 151.748 133.237 151.913 132.928C152.079 132.613 152.308 132.371 152.601 132.2C152.9 132.024 153.244 131.936 153.633 131.936C154.017 131.936 154.348 132.024 154.625 132.2C154.908 132.371 155.124 132.597 155.273 132.88C155.423 133.163 155.497 133.467 155.497 133.792C155.497 133.851 155.495 133.909 155.489 133.968C155.489 134.027 155.489 134.093 155.489 134.168H152.329C152.345 134.472 152.415 134.725 152.537 134.928C152.665 135.125 152.823 135.275 153.009 135.376C153.201 135.477 153.404 135.528 153.617 135.528C153.895 135.528 154.127 135.464 154.313 135.336C154.5 135.208 154.636 135.035 154.721 134.816H155.385C155.279 135.184 155.073 135.491 154.769 135.736C154.471 135.976 154.087 136.096 153.617 136.096ZM153.617 132.504C153.297 132.504 153.012 132.603 152.761 132.8C152.516 132.992 152.375 133.275 152.337 133.648H154.833C154.817 133.291 154.695 133.011 154.465 132.808C154.236 132.605 153.953 132.504 153.617 132.504ZM156.388 136V132.032H156.996L157.052 132.792C157.175 132.531 157.361 132.323 157.612 132.168C157.863 132.013 158.172 131.936 158.54 131.936V132.64H158.356C158.121 132.64 157.905 132.683 157.708 132.768C157.511 132.848 157.353 132.987 157.236 133.184C157.119 133.381 157.06 133.653 157.06 134V136H156.388ZM159.294 136V132.032H159.902L159.942 132.744C160.07 132.493 160.254 132.296 160.494 132.152C160.734 132.008 161.006 131.936 161.31 131.936C161.78 131.936 162.153 132.08 162.43 132.368C162.713 132.651 162.854 133.088 162.854 133.68V136H162.182V133.752C162.182 132.925 161.841 132.512 161.158 132.512C160.817 132.512 160.532 132.637 160.302 132.888C160.078 133.133 159.966 133.485 159.966 133.944V136H159.294ZM165.192 136.096C164.862 136.096 164.587 136.04 164.368 135.928C164.15 135.816 163.987 135.667 163.88 135.48C163.774 135.293 163.72 135.091 163.72 134.872C163.72 134.467 163.875 134.155 164.184 133.936C164.494 133.717 164.915 133.608 165.448 133.608H166.52V133.56C166.52 133.213 166.43 132.952 166.248 132.776C166.067 132.595 165.824 132.504 165.52 132.504C165.259 132.504 165.032 132.571 164.84 132.704C164.654 132.832 164.536 133.021 164.488 133.272H163.8C163.827 132.984 163.923 132.741 164.088 132.544C164.259 132.347 164.47 132.197 164.72 132.096C164.971 131.989 165.238 131.936 165.52 131.936C166.075 131.936 166.491 132.085 166.768 132.384C167.051 132.677 167.192 133.069 167.192 133.56V136H166.592L166.552 135.288C166.44 135.512 166.275 135.704 166.056 135.864C165.843 136.019 165.555 136.096 165.192 136.096ZM165.296 135.528C165.552 135.528 165.771 135.461 165.952 135.328C166.139 135.195 166.28 135.021 166.376 134.808C166.472 134.595 166.52 134.371 166.52 134.136V134.128H165.504C165.11 134.128 164.83 134.197 164.664 134.336C164.504 134.469 164.424 134.637 164.424 134.84C164.424 135.048 164.499 135.216 164.648 135.344C164.803 135.467 165.019 135.528 165.296 135.528ZM170.024 136.096C169.646 136.096 169.304 136.011 169 135.84C168.702 135.664 168.464 135.421 168.288 135.112C168.118 134.797 168.032 134.432 168.032 134.016C168.032 133.6 168.118 133.237 168.288 132.928C168.464 132.613 168.702 132.371 169 132.2C169.304 132.024 169.646 131.936 170.024 131.936C170.494 131.936 170.888 132.059 171.208 132.304C171.534 132.549 171.739 132.877 171.824 133.288H171.136C171.083 133.043 170.952 132.853 170.744 132.72C170.536 132.581 170.294 132.512 170.016 132.512C169.792 132.512 169.582 132.568 169.384 132.68C169.187 132.792 169.027 132.96 168.904 133.184C168.782 133.408 168.72 133.685 168.72 134.016C168.72 134.347 168.782 134.624 168.904 134.848C169.027 135.072 169.187 135.243 169.384 135.36C169.582 135.472 169.792 135.528 170.016 135.528C170.294 135.528 170.536 135.461 170.744 135.328C170.952 135.189 171.083 134.995 171.136 134.744H171.824C171.744 135.144 171.542 135.469 171.216 135.72C170.891 135.971 170.494 136.096 170.024 136.096ZM173.171 131.152C173.038 131.152 172.926 131.109 172.835 131.024C172.75 130.933 172.707 130.821 172.707 130.688C172.707 130.56 172.75 130.453 172.835 130.368C172.926 130.283 173.038 130.24 173.171 130.24C173.299 130.24 173.408 130.283 173.499 130.368C173.59 130.453 173.635 130.56 173.635 130.688C173.635 130.821 173.59 130.933 173.499 131.024C173.408 131.109 173.299 131.152 173.171 131.152ZM172.835 136V132.032H173.507V136H172.835ZM176.485 136.096C176.112 136.096 175.776 136.011 175.477 135.84C175.178 135.669 174.941 135.429 174.765 135.12C174.594 134.805 174.509 134.437 174.509 134.016C174.509 133.595 174.597 133.229 174.773 132.92C174.949 132.605 175.186 132.363 175.485 132.192C175.789 132.021 176.128 131.936 176.501 131.936C176.874 131.936 177.21 132.021 177.509 132.192C177.808 132.363 178.042 132.605 178.213 132.92C178.389 133.229 178.477 133.595 178.477 134.016C178.477 134.437 178.389 134.805 178.213 135.12C178.037 135.429 177.797 135.669 177.493 135.84C177.194 136.011 176.858 136.096 176.485 136.096ZM176.485 135.52C176.714 135.52 176.928 135.464 177.125 135.352C177.322 135.24 177.482 135.072 177.605 134.848C177.728 134.624 177.789 134.347 177.789 134.016C177.789 133.685 177.728 133.408 177.605 133.184C177.488 132.96 177.33 132.792 177.133 132.68C176.936 132.568 176.725 132.512 176.501 132.512C176.272 132.512 176.058 132.568 175.861 132.68C175.664 132.792 175.504 132.96 175.381 133.184C175.258 133.408 175.197 133.685 175.197 134.016C175.197 134.347 175.258 134.624 175.381 134.848C175.504 135.072 175.661 135.24 175.853 135.352C176.05 135.464 176.261 135.52 176.485 135.52ZM179.411 136V132.032H180.019L180.059 132.744C180.187 132.493 180.371 132.296 180.611 132.152C180.851 132.008 181.123 131.936 181.427 131.936C181.897 131.936 182.27 132.08 182.547 132.368C182.83 132.651 182.971 133.088 182.971 133.68V136H182.299V133.752C182.299 132.925 181.958 132.512 181.275 132.512C180.934 132.512 180.649 132.637 180.419 132.888C180.195 133.133 180.083 133.485 180.083 133.944V136H179.411ZM185.31 136.096C184.979 136.096 184.704 136.04 184.486 135.928C184.267 135.816 184.104 135.667 183.998 135.48C183.891 135.293 183.838 135.091 183.838 134.872C183.838 134.467 183.992 134.155 184.302 133.936C184.611 133.717 185.032 133.608 185.566 133.608H186.638V133.56C186.638 133.213 186.547 132.952 186.366 132.776C186.184 132.595 185.942 132.504 185.638 132.504C185.376 132.504 185.15 132.571 184.958 132.704C184.771 132.832 184.654 133.021 184.606 133.272H183.918C183.944 132.984 184.04 132.741 184.206 132.544C184.376 132.347 184.587 132.197 184.838 132.096C185.088 131.989 185.355 131.936 185.638 131.936C186.192 131.936 186.608 132.085 186.886 132.384C187.168 132.677 187.31 133.069 187.31 133.56V136H186.71L186.67 135.288C186.558 135.512 186.392 135.704 186.174 135.864C185.96 136.019 185.672 136.096 185.31 136.096ZM185.414 135.528C185.67 135.528 185.888 135.461 186.07 135.328C186.256 135.195 186.398 135.021 186.494 134.808C186.59 134.595 186.638 134.371 186.638 134.136V134.128H185.622C185.227 134.128 184.947 134.197 184.782 134.336C184.622 134.469 184.542 134.637 184.542 134.84C184.542 135.048 184.616 135.216 184.766 135.344C184.92 135.467 185.136 135.528 185.414 135.528ZM188.318 136V130.24H188.99V136H188.318Z" fill="url(#paint5_linear_811_102)"/>
</g>
<defs>
<filter id="filter0_d_811_102" x="81.4351" y="53.4448" width="105.646" height="43.8623" filterUnits="userSpaceOnUse" color-interpolation-filters="sRGB">
<feFlood flood-opacity="0" result="BackgroundImageFix"/>
<feColorMatrix in="SourceAlpha" type="matrix" values="0 0 0 0 0 0 0 0 0 0 0 0 0 0 0 0 0 0 127 0" result="hardAlpha"/>
<feOffset/>
<feGaussianBlur stdDeviation="4"/>
<feComposite in2="hardAlpha" operator="out"/>
<feColorMatrix type="matrix" values="0 0 0 0 1 0 0 0 0 1 0 0 0 0 1 0 0 0 0.25 0"/>
<feBlend mode="normal" in2="BackgroundImageFix" result="effect1_dropShadow_811_102"/>
<feBlend mode="normal" in="SourceGraphic" in2="effect1_dropShadow_811_102" result="shape"/>
</filter>
<filter id="filter1_d_811_102" x="96.7019" y="107.369" width="105.468" height="43.8047" filterUnits="userSpaceOnUse" color-interpolation-filters="sRGB">
<feFlood flood-opacity="0" result="BackgroundImageFix"/>
<feColorMatrix in="SourceAlpha" type="matrix" values="0 0 0 0 0 0 0 0 0 0 0 0 0 0 0 0 0 0 127 0" result="hardAlpha"/>
<feOffset/>
<feGaussianBlur stdDeviation="4"/>
<feComposite in2="hardAlpha" operator="out"/>
<feColorMatrix type="matrix" values="0 0 0 0 1 0 0 0 0 1 0 0 0 0 1 0 0 0 0.25 0"/>
<feBlend mode="normal" in2="BackgroundImageFix" result="effect1_dropShadow_811_102"/>
<feBlend mode="normal" in="SourceGraphic" in2="effect1_dropShadow_811_102" result="shape"/>
</filter>
<filter id="filter2_d_811_102" x="105.872" y="42.3481" width="52.1077" height="123.375" filterUnits="userSpaceOnUse" color-interpolation-filters="sRGB">
<feFlood flood-opacity="0" result="BackgroundImageFix"/>
<feColorMatrix in="SourceAlpha" type="matrix" values="0 0 0 0 0 0 0 0 0 0 0 0 0 0 0 0 0 0 127 0" result="hardAlpha"/>
<feOffset/>
<feGaussianBlur stdDeviation="4"/>
<feComposite in2="hardAlpha" operator="out"/>
<feColorMatrix type="matrix" values="0 0 0 0 1 0 0 0 0 1 0 0 0 0 1 0 0 0 0.25 0"/>
<feBlend mode="normal" in2="BackgroundImageFix" result="effect1_dropShadow_811_102"/>
<feBlend mode="normal" in="SourceGraphic" in2="effect1_dropShadow_811_102" result="shape"/>
</filter>
<filter id="filter3_d_811_102" x="125.774" y="38.7853" width="52.1077" height="123.375" filterUnits="userSpaceOnUse" color-interpolation-filters="sRGB">
<feFlood flood-opacity="0" result="BackgroundImageFix"/>
<feColorMatrix in="SourceAlpha" type="matrix" values="0 0 0 0 0 0 0 0 0 0 0 0 0 0 0 0 0 0 127 0" result="hardAlpha"/>
<feOffset/>
<feGaussianBlur stdDeviation="4"/>
<feComposite in2="hardAlpha" operator="out"/>
<feColorMatrix type="matrix" values="0 0 0 0 1 0 0 0 0 1 0 0 0 0 1 0 0 0 0.25 0"/>
<feBlend mode="normal" in2="BackgroundImageFix" result="effect1_dropShadow_811_102"/>
<feBlend mode="normal" in="SourceGraphic" in2="effect1_dropShadow_811_102" result="shape"/>
</filter>
<filter id="filter4_f_811_102" x="-70" y="-52" width="423" height="329" filterUnits="userSpaceOnUse" color-interpolation-filters="sRGB">
<feFlood flood-opacity="0" result="BackgroundImageFix"/>
<feBlend mode="normal" in="SourceGraphic" in2="BackgroundImageFix" result="shape"/>
<feGaussianBlur stdDeviation="35" result="effect1_foregroundBlur_811_102"/>
</filter>
<radialGradient id="paint0_radial_811_102" cx="0" cy="0" r="1" gradientUnits="userSpaceOnUse" gradientTransform="translate(141.5 94.5) rotate(89.7077) scale(98.0013 146.743)">
<stop stop-color="white" stop-opacity="0.37"/>
<stop offset="1" stop-color="white" stop-opacity="0"/>
</radialGradient>
<radialGradient id="paint1_radial_811_102" cx="0" cy="0" r="1" gradientUnits="userSpaceOnUse" gradientTransform="translate(141.5 112.5) rotate(90) scale(94.5 141.5)">
<stop offset="0.145833" stop-color="#00D1FF" stop-opacity="0.57"/>
<stop offset="0.364583" stop-color="#D9D9D9" stop-opacity="0"/>
</radialGradient>
<radialGradient id="paint2_radial_811_102" cx="0" cy="0" r="1" gradientUnits="userSpaceOnUse" gradientTransform="translate(151.5 105.5) rotate(103.861) scale(47.9634)">
<stop stop-color="#D9D9D9"/>
<stop offset="1" stop-color="#D9D9D9" stop-opacity="0"/>
</radialGradient>
<linearGradient id="paint3_linear_811_102" x1="141.5" y1="97" x2="141.5" y2="149" gradientUnits="userSpaceOnUse">
<stop stop-color="#A9D6FF" stop-opacity="0.4"/>
<stop offset="1" stop-color="#2F3B47" stop-opacity="0.46"/>
</linearGradient>
<linearGradient id="paint4_linear_811_102" x1="142" y1="105" x2="142" y2="120" gradientUnits="userSpaceOnUse">
<stop stop-color="#9EEEFF" stop-opacity="0.79"/>
<stop offset="1" stop-color="#65A6B5" stop-opacity="0.69"/>
</linearGradient>
<linearGradient id="paint5_linear_811_102" x1="142" y1="129" x2="142" y2="138" gradientUnits="userSpaceOnUse">
<stop stop-color="#B4DFE4"/>
<stop offset="1" stop-color="#7E999C"/>
</linearGradient>
<clipPath id="clip0_811_102">
<rect width="283" height="189" fill="white"/>
</clipPath>
</defs>
</svg>
