<svg width="283" height="189" viewBox="0 0 283 189" fill="none" xmlns="http://www.w3.org/2000/svg">
<g clip-path="url(#clip0_811_102)">
<mask id="mask0_811_102" style="mask-type:alpha" maskUnits="userSpaceOnUse" x="0" y="0" width="283" height="189">
<rect width="283" height="189" fill="url(#paint0_radial_811_102)"/>
</mask>
<g mask="url(#mask0_811_102)">
<mask id="mask1_811_102" style="mask-type:alpha" maskUnits="userSpaceOnUse" x="40" y="11" width="204" height="147">
<ellipse cx="141.63" cy="84.5" rx="101.523" ry="73.5" fill="url(#paint1_radial_811_102)"/>
</mask>
<g mask="url(#mask1_811_102)">
<g opacity="0.8">
<path d="M174.28 205.187C242.237 186.978 282.818 118.073 264.922 51.2841C247.026 -15.5053 177.429 -54.8876 109.472 -36.6787C41.5159 -18.4698 0.933975 50.4349 18.8301 117.224C36.7263 184.014 106.324 223.396 174.28 205.187Z" fill="#1D1B28" stroke="#4BBEFF" stroke-linecap="round" stroke-linejoin="round"/>
<path d="M171.294 194.042C232.987 177.511 269.829 114.957 253.583 54.3225C237.336 -6.31168 174.152 -42.0646 112.459 -25.5338C50.7648 -9.003 13.9229 53.5516 30.1698 114.186C46.4167 174.82 109.6 210.573 171.294 194.042Z" fill="#1D1B28" stroke="#4BBEFF" stroke-linecap="round" stroke-linejoin="round"/>
<path d="M168.792 184.706C225.24 169.581 258.949 112.346 244.084 56.8677C229.218 1.38945 171.408 -31.3233 114.96 -16.1981C58.5123 -1.07302 24.8032 56.1623 39.6686 111.641C54.5339 167.119 112.345 199.832 168.792 184.706Z" fill="#1D1B28" stroke="#4BBEFF" stroke-linecap="round" stroke-linejoin="round"/>
<path d="M166.291 175.371C217.492 161.652 248.069 109.735 234.585 59.4129C221.101 9.0904 168.663 -20.5822 117.461 -6.8627C66.2594 6.85678 35.683 58.773 49.1669 109.095C62.6507 159.418 115.089 189.09 166.291 175.371Z" fill="#1D1B28" stroke="#4BBEFF" stroke-linecap="round" stroke-linejoin="round"/>
<path d="M164.415 168.369C211.682 155.704 239.909 107.777 227.461 61.3217C215.014 14.8661 166.605 -12.5264 119.338 0.138891C72.0702 12.8041 43.8433 60.731 56.2911 107.187C68.7388 153.642 117.147 181.035 164.415 168.369Z" fill="#1D1B28" stroke="#4BBEFF" stroke-linecap="round" stroke-linejoin="round"/>
<path d="M162.685 161.913C206.324 150.22 232.384 105.972 220.892 63.082C209.399 20.1925 164.707 -5.09729 121.068 6.59575C77.4287 18.2888 51.3685 62.5367 62.8608 105.426C74.353 148.316 119.046 173.606 162.685 161.913Z" fill="#1D1B28" stroke="#4BBEFF" stroke-linecap="round" stroke-linejoin="round"/>
<path d="M161.067 155.875C201.313 145.091 225.347 104.283 214.749 64.7281C204.15 25.1729 162.932 1.84932 122.685 12.6333C82.4391 23.4172 58.405 64.2251 69.0037 103.78C79.6025 143.335 120.821 166.659 161.067 155.875Z" fill="#1D1B28" stroke="#4BBEFF" stroke-linecap="round" stroke-linejoin="round"/>
<path d="M159.337 149.419C195.955 139.607 217.823 102.478 208.18 66.4882C198.536 30.4987 161.034 9.27747 124.415 19.0893C87.7969 28.9012 65.9293 66.0306 75.5727 102.02C85.216 138.01 122.719 159.231 159.337 149.419Z" fill="#1D1B28" stroke="#4BBEFF" stroke-linecap="round" stroke-linejoin="round"/>
<path d="M157.845 143.851C190.76 135.032 210.292 101.2 201.473 68.2852C192.654 35.3707 158.822 15.8378 125.907 24.6572C92.9925 33.4766 73.4596 67.3086 82.279 100.223C91.0984 133.138 124.93 152.671 157.845 143.851Z" fill="#1D1B28" stroke="#4BBEFF" stroke-linecap="round" stroke-linejoin="round"/>
<path d="M156.128 137.441C185.502 129.571 202.934 99.3772 195.063 70.0027C187.192 40.6282 156.999 23.196 127.625 31.0669C98.25 38.9378 80.8179 69.1311 88.6887 98.5057C96.5596 127.88 126.753 145.312 156.128 137.441Z" stroke="#4BBEFF" stroke-linecap="round" stroke-linejoin="round"/>
<g filter="url(#filter0_d_811_102)">
<path d="M178.58 43.9449C167.191 55.3335 152.991 63.5061 137.423 67.6332C121.876 71.8433 105.493 71.8655 89.9348 67.6974" stroke="#D2EFFF" stroke-linecap="round" stroke-linejoin="round" shape-rendering="crispEdges"/>
</g>
<g filter="url(#filter1_d_811_102)">
<path d="M105.201 124.674C116.58 113.322 130.741 105.157 146.267 100.997C161.793 96.8365 178.139 96.8271 193.67 100.969" stroke="#D2EFFF" stroke-linecap="round" stroke-linejoin="round" shape-rendering="crispEdges"/>
</g>
<g filter="url(#filter2_d_811_102)">
<path d="M149.479 139.223C133.86 126.962 122.638 109.966 117.499 90.7861C112.359 71.6059 113.579 51.2761 120.976 32.8484" stroke="#D2EFFF" stroke-linecap="round" stroke-linejoin="round" shape-rendering="crispEdges"/>
</g>
<g filter="url(#filter3_d_811_102)">
<path d="M134.273 29.2855C149.893 41.5461 161.114 58.542 166.254 77.7223C171.393 96.9025 170.173 117.232 162.776 135.66" stroke="#D2EFFF" stroke-linecap="round" stroke-linejoin="round" shape-rendering="crispEdges"/>
</g>
</g>
</g>
<g filter="url(#filter4_f_811_102)">
<ellipse cx="141.5" cy="94.5" rx="141.5" ry="94.5" fill="url(#paint2_radial_811_102)"/>
</g>
</g>
<rect x="45.5" y="84.5" width="192" height="77" rx="5.5" fill="#18171F" stroke="url(#paint3_linear_811_102)"/>
<line x1="88" y1="126.5" x2="196" y2="126.5" stroke="white" stroke-opacity="0.17"/>
<path d="M101.703 116V102H103.383V116H101.703ZM110.811 116.24C109.784 116.24 108.891 116.053 108.131 115.68C107.371 115.307 106.784 114.787 106.371 114.12C105.958 113.453 105.751 112.68 105.751 111.8H107.511C107.511 112.347 107.638 112.853 107.891 113.32C108.144 113.773 108.511 114.14 108.991 114.42C109.484 114.687 110.091 114.82 110.811 114.82C111.758 114.82 112.491 114.593 113.011 114.14C113.531 113.687 113.791 113.12 113.791 112.44C113.791 111.88 113.671 111.433 113.431 111.1C113.191 110.753 112.864 110.473 112.451 110.26C112.051 110.047 111.584 109.86 111.051 109.7C110.531 109.54 109.984 109.36 109.411 109.16C108.331 108.787 107.531 108.327 107.011 107.78C106.491 107.22 106.231 106.493 106.231 105.6C106.218 104.853 106.391 104.193 106.751 103.62C107.111 103.033 107.618 102.58 108.271 102.26C108.938 101.927 109.724 101.76 110.631 101.76C111.524 101.76 112.298 101.927 112.951 102.26C113.618 102.593 114.131 103.053 114.491 103.64C114.864 104.227 115.058 104.893 115.071 105.64H113.311C113.311 105.253 113.211 104.873 113.011 104.5C112.811 104.113 112.504 103.8 112.091 103.56C111.691 103.32 111.184 103.2 110.571 103.2C109.811 103.187 109.184 103.38 108.691 103.78C108.211 104.18 107.971 104.733 107.971 105.44C107.971 106.04 108.138 106.5 108.471 106.82C108.818 107.14 109.298 107.407 109.911 107.62C110.524 107.82 111.231 108.053 112.031 108.32C112.698 108.56 113.298 108.84 113.831 109.16C114.364 109.48 114.778 109.893 115.071 110.4C115.378 110.907 115.531 111.553 115.531 112.34C115.531 113.007 115.358 113.64 115.011 114.24C114.664 114.827 114.138 115.307 113.431 115.68C112.738 116.053 111.864 116.24 110.811 116.24ZM124.274 116.24C122.9 116.24 121.694 115.94 120.654 115.34C119.627 114.727 118.82 113.873 118.234 112.78C117.66 111.687 117.374 110.427 117.374 109C117.374 107.573 117.66 106.32 118.234 105.24C118.82 104.147 119.627 103.293 120.654 102.68C121.694 102.067 122.9 101.76 124.274 101.76C125.66 101.76 126.867 102.067 127.894 102.68C128.934 103.293 129.74 104.147 130.314 105.24C130.887 106.32 131.174 107.573 131.174 109C131.174 110.427 130.887 111.687 130.314 112.78C129.74 113.873 128.934 114.727 127.894 115.34C126.867 115.94 125.66 116.24 124.274 116.24ZM124.274 114.76C125.3 114.76 126.2 114.533 126.974 114.08C127.76 113.613 128.367 112.953 128.794 112.1C129.234 111.233 129.454 110.2 129.454 109C129.454 107.8 129.234 106.773 128.794 105.92C128.367 105.067 127.76 104.413 126.974 103.96C126.2 103.493 125.3 103.26 124.274 103.26C123.247 103.26 122.34 103.493 121.554 103.96C120.78 104.413 120.174 105.067 119.734 105.92C119.307 106.773 119.094 107.8 119.094 109C119.094 110.2 119.307 111.233 119.734 112.1C120.174 112.953 120.78 113.613 121.554 114.08C122.34 114.533 123.247 114.76 124.274 114.76ZM143.51 116.24C142.63 116.24 141.877 116.067 141.25 115.72C140.623 115.373 140.123 114.913 139.75 114.34C139.39 113.753 139.17 113.107 139.09 112.4H140.65C140.783 113.16 141.103 113.747 141.61 114.16C142.117 114.573 142.757 114.78 143.53 114.78C144.597 114.78 145.483 114.287 146.19 113.3C146.897 112.3 147.277 110.747 147.33 108.64C147.01 109.267 146.497 109.813 145.79 110.28C145.097 110.733 144.257 110.96 143.27 110.96C142.483 110.96 141.737 110.773 141.03 110.4C140.323 110.027 139.75 109.507 139.31 108.84C138.87 108.16 138.65 107.367 138.65 106.46C138.65 105.673 138.843 104.92 139.23 104.2C139.63 103.48 140.19 102.893 140.91 102.44C141.63 101.987 142.49 101.76 143.49 101.76C144.503 101.76 145.357 101.953 146.05 102.34C146.743 102.713 147.297 103.22 147.71 103.86C148.137 104.5 148.443 105.22 148.63 106.02C148.83 106.807 148.93 107.613 148.93 108.44C148.93 109.987 148.717 111.347 148.29 112.52C147.863 113.68 147.243 114.593 146.43 115.26C145.63 115.913 144.657 116.24 143.51 116.24ZM143.61 109.5C144.237 109.5 144.797 109.36 145.29 109.08C145.783 108.787 146.177 108.4 146.47 107.92C146.763 107.44 146.91 106.92 146.91 106.36C146.91 105.76 146.763 105.227 146.47 104.76C146.177 104.28 145.783 103.907 145.29 103.64C144.797 103.373 144.237 103.24 143.61 103.24C142.983 103.24 142.423 103.373 141.93 103.64C141.437 103.907 141.05 104.28 140.77 104.76C140.49 105.227 140.35 105.767 140.35 106.38C140.35 107.327 140.657 108.087 141.27 108.66C141.897 109.22 142.677 109.5 143.61 109.5ZM156.948 116.24C155.708 116.24 154.634 115.94 153.728 115.34C152.834 114.727 152.148 113.88 151.668 112.8C151.188 111.707 150.948 110.44 150.948 109C150.948 107.56 151.188 106.3 151.668 105.22C152.148 104.127 152.834 103.28 153.728 102.68C154.634 102.067 155.708 101.76 156.948 101.76C158.188 101.76 159.254 102.067 160.148 102.68C161.041 103.28 161.728 104.127 162.208 105.22C162.688 106.3 162.928 107.56 162.928 109C162.928 110.44 162.688 111.707 162.208 112.8C161.728 113.88 161.041 114.727 160.148 115.34C159.254 115.94 158.188 116.24 156.948 116.24ZM156.948 114.76C157.761 114.76 158.488 114.533 159.128 114.08C159.781 113.613 160.288 112.953 160.648 112.1C161.021 111.233 161.208 110.2 161.208 109C161.208 107.8 161.021 106.773 160.648 105.92C160.288 105.067 159.781 104.413 159.128 103.96C158.488 103.493 157.761 103.26 156.948 103.26C156.121 103.26 155.388 103.493 154.748 103.96C154.108 104.413 153.601 105.067 153.228 105.92C152.854 106.773 152.668 107.8 152.668 109C152.668 110.2 152.854 111.233 153.228 112.1C153.601 112.953 154.108 113.613 154.748 114.08C155.388 114.533 156.121 114.76 156.948 114.76ZM170.815 116.24C169.575 116.24 168.502 115.94 167.595 115.34C166.702 114.727 166.015 113.88 165.535 112.8C165.055 111.707 164.815 110.44 164.815 109C164.815 107.56 165.055 106.3 165.535 105.22C166.015 104.127 166.702 103.28 167.595 102.68C168.502 102.067 169.575 101.76 170.815 101.76C172.055 101.76 173.122 102.067 174.015 102.68C174.908 103.28 175.595 104.127 176.075 105.22C176.555 106.3 176.795 107.56 176.795 109C176.795 110.44 176.555 111.707 176.075 112.8C175.595 113.88 174.908 114.727 174.015 115.34C173.122 115.94 172.055 116.24 170.815 116.24ZM170.815 114.76C171.628 114.76 172.355 114.533 172.995 114.08C173.648 113.613 174.155 112.953 174.515 112.1C174.888 111.233 175.075 110.2 175.075 109C175.075 107.8 174.888 106.773 174.515 105.92C174.155 105.067 173.648 104.413 172.995 103.96C172.355 103.493 171.628 103.26 170.815 103.26C169.988 103.26 169.255 103.493 168.615 103.96C167.975 104.413 167.468 105.067 167.095 105.92C166.722 106.773 166.535 107.8 166.535 109C166.535 110.2 166.722 111.233 167.095 112.1C167.468 112.953 167.975 113.613 168.615 114.08C169.255 114.533 169.988 114.76 170.815 114.76ZM180.602 116V103.88L178.342 104.38V103.22L181.162 102H182.302V116H180.602Z" fill="url(#paint4_linear_811_102)"/>
<path d="M64.6406 146.168C63.6793 146.168 62.8486 145.958 62.1486 145.538C61.458 145.109 60.9213 144.516 60.5386 143.76C60.156 142.995 59.9646 142.108 59.9646 141.1C59.9646 140.101 60.156 139.224 60.5386 138.468C60.9213 137.703 61.458 137.105 62.1486 136.676C62.8486 136.247 63.6793 136.032 64.6406 136.032C65.7606 136.032 66.6706 136.303 67.3706 136.844C68.08 137.376 68.5326 138.123 68.7286 139.084H67.4266C67.2773 138.477 66.9693 137.992 66.5026 137.628C66.0453 137.255 65.4246 137.068 64.6406 137.068C63.9406 137.068 63.3293 137.231 62.8066 137.558C62.284 137.875 61.878 138.337 61.5886 138.944C61.3086 139.541 61.1686 140.26 61.1686 141.1C61.1686 141.94 61.3086 142.663 61.5886 143.27C61.878 143.867 62.284 144.329 62.8066 144.656C63.3293 144.973 63.9406 145.132 64.6406 145.132C65.4246 145.132 66.0453 144.955 66.5026 144.6C66.9693 144.236 67.2773 143.755 67.4266 143.158H68.7286C68.5326 144.101 68.08 144.838 67.3706 145.37C66.6706 145.902 65.7606 146.168 64.6406 146.168ZM73.4708 146.168C72.8081 146.168 72.2201 146.019 71.7068 145.72C71.1935 145.412 70.7875 144.987 70.4888 144.446C70.1995 143.905 70.0548 143.265 70.0548 142.528C70.0548 141.8 70.1995 141.165 70.4888 140.624C70.7781 140.073 71.1795 139.649 71.6928 139.35C72.2155 139.042 72.8175 138.888 73.4988 138.888C74.1708 138.888 74.7495 139.042 75.2348 139.35C75.7295 139.649 76.1075 140.045 76.3688 140.54C76.6301 141.035 76.7608 141.567 76.7608 142.136C76.7608 142.239 76.7561 142.341 76.7468 142.444C76.7468 142.547 76.7468 142.663 76.7468 142.794H71.2168C71.2448 143.326 71.3661 143.769 71.5808 144.124C71.8048 144.469 72.0801 144.731 72.4068 144.908C72.7428 145.085 73.0975 145.174 73.4708 145.174C73.9561 145.174 74.3621 145.062 74.6888 144.838C75.0155 144.614 75.2535 144.311 75.4028 143.928H76.5648C76.3781 144.572 76.0188 145.109 75.4868 145.538C74.9641 145.958 74.2921 146.168 73.4708 146.168ZM73.4708 139.882C72.9108 139.882 72.4115 140.055 71.9728 140.4C71.5435 140.736 71.2961 141.231 71.2308 141.884H75.5988C75.5708 141.259 75.3561 140.769 74.9548 140.414C74.5535 140.059 74.0588 139.882 73.4708 139.882ZM78.3195 146V139.056H79.3835L79.4815 140.386C79.6962 139.929 80.0228 139.565 80.4615 139.294C80.9002 139.023 81.4415 138.888 82.0855 138.888V140.12H81.7635C81.3528 140.12 80.9748 140.195 80.6295 140.344C80.2842 140.484 80.0088 140.727 79.8035 141.072C79.5982 141.417 79.4955 141.893 79.4955 142.5V146H78.3195ZM86.1495 146C85.5148 146 85.0155 145.846 84.6515 145.538C84.2875 145.23 84.1055 144.675 84.1055 143.872V140.05H82.9015V139.056H84.1055L84.2595 137.39H85.2815V139.056H87.3255V140.05H85.2815V143.872C85.2815 144.311 85.3701 144.609 85.5475 144.768C85.7248 144.917 86.0375 144.992 86.4855 144.992H87.2135V146H86.1495ZM89.5335 137.516C89.3002 137.516 89.1042 137.441 88.9455 137.292C88.7962 137.133 88.7215 136.937 88.7215 136.704C88.7215 136.48 88.7962 136.293 88.9455 136.144C89.1042 135.995 89.3002 135.92 89.5335 135.92C89.7575 135.92 89.9488 135.995 90.1075 136.144C90.2662 136.293 90.3455 136.48 90.3455 136.704C90.3455 136.937 90.2662 137.133 90.1075 137.292C89.9488 137.441 89.7575 137.516 89.5335 137.516ZM88.9455 146V139.056H90.1215V146H88.9455ZM92.5471 146V140.05H91.4971V139.056H92.5471V137.852C92.5471 137.18 92.7151 136.69 93.0511 136.382C93.3871 136.074 93.8771 135.92 94.5211 135.92H95.2211V136.928H94.7031C94.3485 136.928 94.0965 137.003 93.9471 137.152C93.7978 137.292 93.7231 137.535 93.7231 137.88V139.056H98.0351V146H96.8591V140.05H93.7231V146H92.5471ZM97.4611 137.726C97.2371 137.726 97.0458 137.651 96.8871 137.502C96.7285 137.343 96.6491 137.147 96.6491 136.914C96.6491 136.69 96.7285 136.503 96.8871 136.354C97.0458 136.205 97.2371 136.13 97.4611 136.13C97.6945 136.13 97.8858 136.205 98.0351 136.354C98.1938 136.503 98.2731 136.69 98.2731 136.914C98.2731 137.147 98.1938 137.343 98.0351 137.502C97.8858 137.651 97.6945 137.726 97.4611 137.726ZM103.304 146.168C102.642 146.168 102.044 146.019 101.512 145.72C100.99 145.412 100.574 144.987 100.266 144.446C99.9678 143.895 99.8185 143.256 99.8185 142.528C99.8185 141.8 99.9678 141.165 100.266 140.624C100.574 140.073 100.99 139.649 101.512 139.35C102.044 139.042 102.642 138.888 103.304 138.888C104.126 138.888 104.816 139.103 105.376 139.532C105.946 139.961 106.305 140.535 106.454 141.254H105.25C105.157 140.825 104.928 140.493 104.564 140.26C104.2 140.017 103.776 139.896 103.29 139.896C102.898 139.896 102.53 139.994 102.184 140.19C101.839 140.386 101.559 140.68 101.344 141.072C101.13 141.464 101.022 141.949 101.022 142.528C101.022 143.107 101.13 143.592 101.344 143.984C101.559 144.376 101.839 144.675 102.184 144.88C102.53 145.076 102.898 145.174 103.29 145.174C103.776 145.174 104.2 145.057 104.564 144.824C104.928 144.581 105.157 144.241 105.25 143.802H106.454C106.314 144.502 105.96 145.071 105.39 145.51C104.821 145.949 104.126 146.168 103.304 146.168ZM110.407 146.168C109.828 146.168 109.348 146.07 108.965 145.874C108.582 145.678 108.298 145.417 108.111 145.09C107.924 144.763 107.831 144.409 107.831 144.026C107.831 143.317 108.102 142.771 108.643 142.388C109.184 142.005 109.922 141.814 110.855 141.814H112.731V141.73C112.731 141.123 112.572 140.666 112.255 140.358C111.938 140.041 111.513 139.882 110.981 139.882C110.524 139.882 110.127 139.999 109.791 140.232C109.464 140.456 109.259 140.787 109.175 141.226H107.971C108.018 140.722 108.186 140.297 108.475 139.952C108.774 139.607 109.142 139.345 109.581 139.168C110.02 138.981 110.486 138.888 110.981 138.888C111.952 138.888 112.68 139.149 113.165 139.672C113.66 140.185 113.907 140.871 113.907 141.73V146H112.857L112.787 144.754C112.591 145.146 112.302 145.482 111.919 145.762C111.546 146.033 111.042 146.168 110.407 146.168ZM110.589 145.174C111.037 145.174 111.42 145.057 111.737 144.824C112.064 144.591 112.311 144.287 112.479 143.914C112.647 143.541 112.731 143.149 112.731 142.738V142.724H110.953C110.262 142.724 109.772 142.845 109.483 143.088C109.203 143.321 109.063 143.615 109.063 143.97C109.063 144.334 109.194 144.628 109.455 144.852C109.726 145.067 110.104 145.174 110.589 145.174ZM118.863 146.168C118.2 146.168 117.603 146.019 117.071 145.72C116.548 145.412 116.133 144.987 115.825 144.446C115.526 143.895 115.377 143.256 115.377 142.528C115.377 141.8 115.526 141.165 115.825 140.624C116.133 140.073 116.548 139.649 117.071 139.35C117.603 139.042 118.2 138.888 118.863 138.888C119.684 138.888 120.375 139.103 120.935 139.532C121.504 139.961 121.864 140.535 122.013 141.254H120.809C120.716 140.825 120.487 140.493 120.123 140.26C119.759 140.017 119.334 139.896 118.849 139.896C118.457 139.896 118.088 139.994 117.743 140.19C117.398 140.386 117.118 140.68 116.903 141.072C116.688 141.464 116.581 141.949 116.581 142.528C116.581 143.107 116.688 143.592 116.903 143.984C117.118 144.376 117.398 144.675 117.743 144.88C118.088 145.076 118.457 145.174 118.849 145.174C119.334 145.174 119.759 145.057 120.123 144.824C120.487 144.581 120.716 144.241 120.809 143.802H122.013C121.873 144.502 121.518 145.071 120.949 145.51C120.38 145.949 119.684 146.168 118.863 146.168ZM117.855 149.64V148.898H119.143C119.778 148.898 120.095 148.674 120.095 148.226C120.095 147.806 119.778 147.596 119.143 147.596H118.457V145.916H119.241V146.896C119.773 146.887 120.207 146.994 120.543 147.218C120.879 147.442 121.047 147.783 121.047 148.24C121.047 148.679 120.888 149.019 120.571 149.262C120.254 149.514 119.852 149.64 119.367 149.64H117.855ZM125.965 146.168C125.387 146.168 124.906 146.07 124.523 145.874C124.141 145.678 123.856 145.417 123.669 145.09C123.483 144.763 123.389 144.409 123.389 144.026C123.389 143.317 123.66 142.771 124.201 142.388C124.743 142.005 125.48 141.814 126.413 141.814H128.289V141.73C128.289 141.123 128.131 140.666 127.813 140.358C127.496 140.041 127.071 139.882 126.539 139.882C126.082 139.882 125.685 139.999 125.349 140.232C125.023 140.456 124.817 140.787 124.733 141.226H123.529C123.576 140.722 123.744 140.297 124.033 139.952C124.332 139.607 124.701 139.345 125.139 139.168C125.578 138.981 126.045 138.888 126.539 138.888C127.51 138.888 128.238 139.149 128.723 139.672C129.218 140.185 129.465 140.871 129.465 141.73V146H128.415L128.345 144.754C128.149 145.146 127.86 145.482 127.477 145.762C127.104 146.033 126.6 146.168 125.965 146.168ZM126.147 145.174C126.595 145.174 126.978 145.057 127.295 144.824C127.622 144.591 127.869 144.287 128.037 143.914C128.205 143.541 128.289 143.149 128.289 142.738V142.724H126.511C125.821 142.724 125.331 142.845 125.041 143.088C124.761 143.321 124.621 143.615 124.621 143.97C124.621 144.334 124.752 144.628 125.013 144.852C125.284 145.067 125.662 145.174 126.147 145.174ZM127.253 138.272C127.001 138.272 126.791 138.216 126.623 138.104C126.465 137.992 126.311 137.885 126.161 137.782C126.012 137.67 125.844 137.614 125.657 137.614C125.312 137.614 125.111 137.824 125.055 138.244H124.369C124.435 137.768 124.584 137.413 124.817 137.18C125.06 136.947 125.354 136.83 125.699 136.83C125.951 136.83 126.157 136.886 126.315 136.998C126.483 137.11 126.642 137.222 126.791 137.334C126.941 137.437 127.113 137.488 127.309 137.488C127.468 137.488 127.603 137.437 127.715 137.334C127.827 137.231 127.897 137.073 127.925 136.858H128.597C128.551 137.315 128.401 137.665 128.149 137.908C127.907 138.151 127.608 138.272 127.253 138.272ZM134.394 146.168C133.74 146.168 133.152 146.019 132.63 145.72C132.107 145.421 131.692 145.001 131.384 144.46C131.085 143.909 130.936 143.265 130.936 142.528C130.936 141.791 131.09 141.151 131.398 140.61C131.706 140.059 132.121 139.635 132.644 139.336C133.176 139.037 133.768 138.888 134.422 138.888C135.075 138.888 135.663 139.037 136.186 139.336C136.708 139.635 137.119 140.059 137.418 140.61C137.726 141.151 137.88 141.791 137.88 142.528C137.88 143.265 137.726 143.909 137.418 144.46C137.11 145.001 136.69 145.421 136.158 145.72C135.635 146.019 135.047 146.168 134.394 146.168ZM134.394 145.16C134.795 145.16 135.168 145.062 135.514 144.866C135.859 144.67 136.139 144.376 136.354 143.984C136.568 143.592 136.676 143.107 136.676 142.528C136.676 141.949 136.568 141.464 136.354 141.072C136.148 140.68 135.873 140.386 135.528 140.19C135.182 139.994 134.814 139.896 134.422 139.896C134.02 139.896 133.647 139.994 133.302 140.19C132.956 140.386 132.676 140.68 132.462 141.072C132.247 141.464 132.14 141.949 132.14 142.528C132.14 143.107 132.247 143.592 132.462 143.984C132.676 144.376 132.952 144.67 133.288 144.866C133.633 145.062 134.002 145.16 134.394 145.16ZM143.29 146V136.2H144.466V146H143.29ZM146.474 146V139.056H147.538L147.608 140.302C147.832 139.863 148.154 139.518 148.574 139.266C148.994 139.014 149.47 138.888 150.002 138.888C150.823 138.888 151.476 139.14 151.962 139.644C152.456 140.139 152.704 140.904 152.704 141.94V146H151.528V142.066C151.528 140.619 150.93 139.896 149.736 139.896C149.138 139.896 148.639 140.115 148.238 140.554C147.846 140.983 147.65 141.599 147.65 142.402V146H146.474ZM157.23 146C156.595 146 156.096 145.846 155.732 145.538C155.368 145.23 155.186 144.675 155.186 143.872V140.05H153.982V139.056H155.186L155.34 137.39H156.362V139.056H158.406V140.05H156.362V143.872C156.362 144.311 156.45 144.609 156.628 144.768C156.805 144.917 157.118 144.992 157.566 144.992H158.294V146H157.23ZM162.83 146.168C162.168 146.168 161.58 146.019 161.066 145.72C160.553 145.412 160.147 144.987 159.848 144.446C159.559 143.905 159.414 143.265 159.414 142.528C159.414 141.8 159.559 141.165 159.848 140.624C160.138 140.073 160.539 139.649 161.052 139.35C161.575 139.042 162.177 138.888 162.858 138.888C163.53 138.888 164.109 139.042 164.594 139.35C165.089 139.649 165.467 140.045 165.728 140.54C165.99 141.035 166.12 141.567 166.12 142.136C166.12 142.239 166.116 142.341 166.106 142.444C166.106 142.547 166.106 142.663 166.106 142.794H160.576C160.604 143.326 160.726 143.769 160.94 144.124C161.164 144.469 161.44 144.731 161.766 144.908C162.102 145.085 162.457 145.174 162.83 145.174C163.316 145.174 163.722 145.062 164.048 144.838C164.375 144.614 164.613 144.311 164.762 143.928H165.924C165.738 144.572 165.378 145.109 164.846 145.538C164.324 145.958 163.652 146.168 162.83 146.168ZM162.83 139.882C162.27 139.882 161.771 140.055 161.332 140.4C160.903 140.736 160.656 141.231 160.59 141.884H164.958C164.93 141.259 164.716 140.769 164.314 140.414C163.913 140.059 163.418 139.882 162.83 139.882ZM167.679 146V139.056H168.743L168.841 140.386C169.056 139.929 169.382 139.565 169.821 139.294C170.26 139.023 170.801 138.888 171.445 138.888V140.12H171.123C170.712 140.12 170.334 140.195 169.989 140.344C169.644 140.484 169.368 140.727 169.163 141.072C168.958 141.417 168.855 141.893 168.855 142.5V146H167.679ZM172.765 146V139.056H173.829L173.899 140.302C174.123 139.863 174.445 139.518 174.865 139.266C175.285 139.014 175.761 138.888 176.293 138.888C177.114 138.888 177.767 139.14 178.253 139.644C178.747 140.139 178.995 140.904 178.995 141.94V146H177.819V142.066C177.819 140.619 177.221 139.896 176.027 139.896C175.429 139.896 174.93 140.115 174.529 140.554C174.137 140.983 173.941 141.599 173.941 142.402V146H172.765ZM183.087 146.168C182.508 146.168 182.027 146.07 181.645 145.874C181.262 145.678 180.977 145.417 180.791 145.09C180.604 144.763 180.511 144.409 180.511 144.026C180.511 143.317 180.781 142.771 181.323 142.388C181.864 142.005 182.601 141.814 183.535 141.814H185.411V141.73C185.411 141.123 185.252 140.666 184.935 140.358C184.617 140.041 184.193 139.882 183.661 139.882C183.203 139.882 182.807 139.999 182.471 140.232C182.144 140.456 181.939 140.787 181.855 141.226H180.651C180.697 140.722 180.865 140.297 181.155 139.952C181.453 139.607 181.822 139.345 182.261 139.168C182.699 138.981 183.166 138.888 183.661 138.888C184.631 138.888 185.359 139.149 185.845 139.672C186.339 140.185 186.587 140.871 186.587 141.73V146H185.537L185.467 144.754C185.271 145.146 184.981 145.482 184.599 145.762C184.225 146.033 183.721 146.168 183.087 146.168ZM183.269 145.174C183.717 145.174 184.099 145.057 184.417 144.824C184.743 144.591 184.991 144.287 185.159 143.914C185.327 143.541 185.411 143.149 185.411 142.738V142.724H183.633C182.942 142.724 182.452 142.845 182.163 143.088C181.883 143.321 181.743 143.615 181.743 143.97C181.743 144.334 181.873 144.628 182.135 144.852C182.405 145.067 182.783 145.174 183.269 145.174ZM191.543 146.168C190.88 146.168 190.283 146.019 189.751 145.72C189.228 145.412 188.813 144.987 188.505 144.446C188.206 143.895 188.057 143.256 188.057 142.528C188.057 141.8 188.206 141.165 188.505 140.624C188.813 140.073 189.228 139.649 189.751 139.35C190.283 139.042 190.88 138.888 191.543 138.888C192.364 138.888 193.055 139.103 193.615 139.532C194.184 139.961 194.543 140.535 194.693 141.254H193.489C193.395 140.825 193.167 140.493 192.803 140.26C192.439 140.017 192.014 139.896 191.529 139.896C191.137 139.896 190.768 139.994 190.423 140.19C190.077 140.386 189.797 140.68 189.583 141.072C189.368 141.464 189.261 141.949 189.261 142.528C189.261 143.107 189.368 143.592 189.583 143.984C189.797 144.376 190.077 144.675 190.423 144.88C190.768 145.076 191.137 145.174 191.529 145.174C192.014 145.174 192.439 145.057 192.803 144.824C193.167 144.581 193.395 144.241 193.489 143.802H194.693C194.553 144.502 194.198 145.071 193.629 145.51C193.059 145.949 192.364 146.168 191.543 146.168ZM197.049 137.516C196.816 137.516 196.62 137.441 196.461 137.292C196.312 137.133 196.237 136.937 196.237 136.704C196.237 136.48 196.312 136.293 196.461 136.144C196.62 135.995 196.816 135.92 197.049 135.92C197.273 135.92 197.464 135.995 197.623 136.144C197.782 136.293 197.861 136.48 197.861 136.704C197.861 136.937 197.782 137.133 197.623 137.292C197.464 137.441 197.273 137.516 197.049 137.516ZM196.461 146V139.056H197.637V146H196.461ZM202.849 146.168C202.195 146.168 201.607 146.019 201.085 145.72C200.562 145.421 200.147 145.001 199.839 144.46C199.54 143.909 199.391 143.265 199.391 142.528C199.391 141.791 199.545 141.151 199.853 140.61C200.161 140.059 200.576 139.635 201.099 139.336C201.631 139.037 202.223 138.888 202.877 138.888C203.53 138.888 204.118 139.037 204.641 139.336C205.163 139.635 205.574 140.059 205.873 140.61C206.181 141.151 206.335 141.791 206.335 142.528C206.335 143.265 206.181 143.909 205.873 144.46C205.565 145.001 205.145 145.421 204.613 145.72C204.09 146.019 203.502 146.168 202.849 146.168ZM202.849 145.16C203.25 145.16 203.623 145.062 203.969 144.866C204.314 144.67 204.594 144.376 204.809 143.984C205.023 143.592 205.131 143.107 205.131 142.528C205.131 141.949 205.023 141.464 204.809 141.072C204.603 140.68 204.328 140.386 203.983 140.19C203.637 139.994 203.269 139.896 202.877 139.896C202.475 139.896 202.102 139.994 201.757 140.19C201.411 140.386 201.131 140.68 200.917 141.072C200.702 141.464 200.595 141.949 200.595 142.528C200.595 143.107 200.702 143.592 200.917 143.984C201.131 144.376 201.407 144.67 201.743 144.866C202.088 145.062 202.457 145.16 202.849 145.16ZM207.97 146V139.056H209.034L209.104 140.302C209.328 139.863 209.65 139.518 210.07 139.266C210.49 139.014 210.966 138.888 211.498 138.888C212.319 138.888 212.973 139.14 213.458 139.644C213.953 140.139 214.2 140.904 214.2 141.94V146H213.024V142.066C213.024 140.619 212.427 139.896 211.232 139.896C210.635 139.896 210.135 140.115 209.734 140.554C209.342 140.983 209.146 141.599 209.146 142.402V146H207.97ZM218.292 146.168C217.713 146.168 217.232 146.07 216.85 145.874C216.467 145.678 216.182 145.417 215.996 145.09C215.809 144.763 215.716 144.409 215.716 144.026C215.716 143.317 215.986 142.771 216.528 142.388C217.069 142.005 217.806 141.814 218.74 141.814H220.616V141.73C220.616 141.123 220.457 140.666 220.14 140.358C219.822 140.041 219.398 139.882 218.866 139.882C218.408 139.882 218.012 139.999 217.676 140.232C217.349 140.456 217.144 140.787 217.06 141.226H215.856C215.902 140.722 216.07 140.297 216.36 139.952C216.658 139.607 217.027 139.345 217.466 139.168C217.904 138.981 218.371 138.888 218.866 138.888C219.836 138.888 220.564 139.149 221.05 139.672C221.544 140.185 221.792 140.871 221.792 141.73V146H220.742L220.672 144.754C220.476 145.146 220.186 145.482 219.804 145.762C219.43 146.033 218.926 146.168 218.292 146.168ZM218.474 145.174C218.922 145.174 219.304 145.057 219.622 144.824C219.948 144.591 220.196 144.287 220.364 143.914C220.532 143.541 220.616 143.149 220.616 142.738V142.724H218.838C218.147 142.724 217.657 142.845 217.368 143.088C217.088 143.321 216.948 143.615 216.948 143.97C216.948 144.334 217.078 144.628 217.34 144.852C217.61 145.067 217.988 145.174 218.474 145.174ZM223.556 146V135.92H224.732V146H223.556Z" fill="url(#paint5_linear_811_102)"/>
</g>
<defs>
<filter id="filter0_d_811_102" x="81.4346" y="35.4449" width="105.646" height="43.8623" filterUnits="userSpaceOnUse" color-interpolation-filters="sRGB">
<feFlood flood-opacity="0" result="BackgroundImageFix"/>
<feColorMatrix in="SourceAlpha" type="matrix" values="0 0 0 0 0 0 0 0 0 0 0 0 0 0 0 0 0 0 127 0" result="hardAlpha"/>
<feOffset/>
<feGaussianBlur stdDeviation="4"/>
<feComposite in2="hardAlpha" operator="out"/>
<feColorMatrix type="matrix" values="0 0 0 0 1 0 0 0 0 1 0 0 0 0 1 0 0 0 0.25 0"/>
<feBlend mode="normal" in2="BackgroundImageFix" result="effect1_dropShadow_811_102"/>
<feBlend mode="normal" in="SourceGraphic" in2="effect1_dropShadow_811_102" result="shape"/>
</filter>
<filter id="filter1_d_811_102" x="96.7014" y="89.3696" width="105.468" height="43.8047" filterUnits="userSpaceOnUse" color-interpolation-filters="sRGB">
<feFlood flood-opacity="0" result="BackgroundImageFix"/>
<feColorMatrix in="SourceAlpha" type="matrix" values="0 0 0 0 0 0 0 0 0 0 0 0 0 0 0 0 0 0 127 0" result="hardAlpha"/>
<feOffset/>
<feGaussianBlur stdDeviation="4"/>
<feComposite in2="hardAlpha" operator="out"/>
<feColorMatrix type="matrix" values="0 0 0 0 1 0 0 0 0 1 0 0 0 0 1 0 0 0 0.25 0"/>
<feBlend mode="normal" in2="BackgroundImageFix" result="effect1_dropShadow_811_102"/>
<feBlend mode="normal" in="SourceGraphic" in2="effect1_dropShadow_811_102" result="shape"/>
</filter>
<filter id="filter2_d_811_102" x="105.872" y="24.3482" width="52.1077" height="123.375" filterUnits="userSpaceOnUse" color-interpolation-filters="sRGB">
<feFlood flood-opacity="0" result="BackgroundImageFix"/>
<feColorMatrix in="SourceAlpha" type="matrix" values="0 0 0 0 0 0 0 0 0 0 0 0 0 0 0 0 0 0 127 0" result="hardAlpha"/>
<feOffset/>
<feGaussianBlur stdDeviation="4"/>
<feComposite in2="hardAlpha" operator="out"/>
<feColorMatrix type="matrix" values="0 0 0 0 1 0 0 0 0 1 0 0 0 0 1 0 0 0 0.25 0"/>
<feBlend mode="normal" in2="BackgroundImageFix" result="effect1_dropShadow_811_102"/>
<feBlend mode="normal" in="SourceGraphic" in2="effect1_dropShadow_811_102" result="shape"/>
</filter>
<filter id="filter3_d_811_102" x="125.773" y="20.7855" width="52.1077" height="123.375" filterUnits="userSpaceOnUse" color-interpolation-filters="sRGB">
<feFlood flood-opacity="0" result="BackgroundImageFix"/>
<feColorMatrix in="SourceAlpha" type="matrix" values="0 0 0 0 0 0 0 0 0 0 0 0 0 0 0 0 0 0 127 0" result="hardAlpha"/>
<feOffset/>
<feGaussianBlur stdDeviation="4"/>
<feComposite in2="hardAlpha" operator="out"/>
<feColorMatrix type="matrix" values="0 0 0 0 1 0 0 0 0 1 0 0 0 0 1 0 0 0 0.25 0"/>
<feBlend mode="normal" in2="BackgroundImageFix" result="effect1_dropShadow_811_102"/>
<feBlend mode="normal" in="SourceGraphic" in2="effect1_dropShadow_811_102" result="shape"/>
</filter>
<filter id="filter4_f_811_102" x="-70" y="-70" width="423" height="329" filterUnits="userSpaceOnUse" color-interpolation-filters="sRGB">
<feFlood flood-opacity="0" result="BackgroundImageFix"/>
<feBlend mode="normal" in="SourceGraphic" in2="BackgroundImageFix" result="shape"/>
<feGaussianBlur stdDeviation="35" result="effect1_foregroundBlur_811_102"/>
</filter>
<radialGradient id="paint0_radial_811_102" cx="0" cy="0" r="1" gradientUnits="userSpaceOnUse" gradientTransform="translate(141.5 95) rotate(90) scale(94 140.751)">
<stop stop-color="white"/>
<stop offset="0.828125" stop-color="white" stop-opacity="0.911458"/>
<stop offset="1" stop-color="white" stop-opacity="0"/>
</radialGradient>
<radialGradient id="paint1_radial_811_102" cx="0" cy="0" r="1" gradientUnits="userSpaceOnUse" gradientTransform="translate(141.63 84.5) rotate(90) scale(73.5 101.523)">
<stop stop-color="white"/>
<stop offset="1" stop-color="white" stop-opacity="0"/>
</radialGradient>
<radialGradient id="paint2_radial_811_102" cx="0" cy="0" r="1" gradientUnits="userSpaceOnUse" gradientTransform="translate(141.5 94.5) rotate(90) scale(94.5 141.5)">
<stop stop-color="#00D1FF"/>
<stop offset="0.739583" stop-color="#D9D9D9" stop-opacity="0"/>
</radialGradient>
<linearGradient id="paint3_linear_811_102" x1="141.5" y1="84" x2="141.5" y2="162" gradientUnits="userSpaceOnUse">
<stop stop-color="#A9D6FF"/>
<stop offset="1" stop-color="#94CBFF" stop-opacity="0"/>
</linearGradient>
<linearGradient id="paint4_linear_811_102" x1="142" y1="99" x2="142" y2="120" gradientUnits="userSpaceOnUse">
<stop stop-color="#8AEAFF"/>
<stop offset="1" stop-color="#4C8491"/>
</linearGradient>
<linearGradient id="paint5_linear_811_102" x1="142.5" y1="134" x2="142.5" y2="149" gradientUnits="userSpaceOnUse">
<stop stop-color="#96CBD2"/>
<stop offset="1" stop-color="#597478"/>
</linearGradient>
<clipPath id="clip0_811_102">
<rect width="283" height="189" fill="white"/>
</clipPath>
</defs>
</svg>
