<svg width="283" height="189" viewBox="0 0 283 189" fill="none" xmlns="http://www.w3.org/2000/svg">
<mask id="mask0_811_245" style="mask-type:alpha" maskUnits="userSpaceOnUse" x="22" y="0" width="250" height="189">
<rect x="22" width="250" height="189" fill="url(#paint0_radial_811_245)"/>
</mask>
<g mask="url(#mask0_811_245)">
<rect x="78.5" y="7.5" width="220" height="187" rx="4.5" fill="#23212C" stroke="url(#paint1_linear_811_245)"/>
<path d="M221 49.5H268C270.485 49.5 272.5 51.5147 272.5 54V146C272.5 148.485 270.485 150.5 268 150.5H221C218.515 150.5 216.5 148.485 216.5 146V54C216.5 51.5147 218.515 49.5 221 49.5Z" fill="url(#paint2_linear_811_245)" fill-opacity="0.12" stroke="url(#paint3_linear_811_245)"/>
<path d="M221 162.5H268C270.485 162.5 272.5 164.515 272.5 167V259C272.5 261.485 270.485 263.5 268 263.5H221C218.515 263.5 216.5 261.485 216.5 259V167C216.5 164.515 218.515 162.5 221 162.5Z" fill="url(#paint4_linear_811_245)" fill-opacity="0.12" stroke="url(#paint5_linear_811_245)"/>
<path d="M221 -63.5H268C270.485 -63.5 272.5 -61.4853 272.5 -59V33C272.5 35.4853 270.485 37.5 268 37.5H221C218.515 37.5 216.5 35.4853 216.5 33V-59C216.5 -61.4853 218.515 -63.5 221 -63.5Z" fill="url(#paint6_linear_811_245)" fill-opacity="0.12" stroke="url(#paint7_linear_811_245)"/>
<path d="M158 49.5H205C207.485 49.5 209.5 51.5147 209.5 54V146C209.5 148.485 207.485 150.5 205 150.5H158C155.515 150.5 153.5 148.485 153.5 146V54C153.5 51.5147 155.515 49.5 158 49.5Z" fill="url(#paint8_linear_811_245)" fill-opacity="0.12" stroke="url(#paint9_linear_811_245)"/>
<path d="M158 162.5H205C207.485 162.5 209.5 164.515 209.5 167V259C209.5 261.485 207.485 263.5 205 263.5H158C155.515 263.5 153.5 261.485 153.5 259V167C153.5 164.515 155.515 162.5 158 162.5Z" fill="url(#paint10_linear_811_245)" fill-opacity="0.12" stroke="url(#paint11_linear_811_245)"/>
<path d="M158 -63.5H205C207.485 -63.5 209.5 -61.4853 209.5 -59V33C209.5 35.4853 207.485 37.5 205 37.5H158C155.515 37.5 153.5 35.4853 153.5 33V-59C153.5 -61.4853 155.515 -63.5 158 -63.5Z" fill="url(#paint12_linear_811_245)" fill-opacity="0.12" stroke="url(#paint13_linear_811_245)"/>
<path d="M95 49.5H142C144.485 49.5 146.5 51.5147 146.5 54V146C146.5 148.485 144.485 150.5 142 150.5H95C92.5147 150.5 90.5 148.485 90.5 146V54C90.5 51.5147 92.5147 49.5 95 49.5Z" fill="url(#paint14_linear_811_245)" fill-opacity="0.12" stroke="url(#paint15_linear_811_245)"/>
<path d="M95 162.5H142C144.485 162.5 146.5 164.515 146.5 167V259C146.5 261.485 144.485 263.5 142 263.5H95C92.5147 263.5 90.5 261.485 90.5 259V167C90.5 164.515 92.5147 162.5 95 162.5Z" fill="url(#paint16_linear_811_245)" fill-opacity="0.12" stroke="url(#paint17_linear_811_245)"/>
<path d="M95 -63.5H142C144.485 -63.5 146.5 -61.4853 146.5 -59V33C146.5 35.4853 144.485 37.5 142 37.5H95C92.5147 37.5 90.5 35.4853 90.5 33V-59C90.5 -61.4853 92.5147 -63.5 95 -63.5Z" fill="url(#paint18_linear_811_245)" fill-opacity="0.12" stroke="url(#paint19_linear_811_245)"/>
</g>
<rect x="48.5" y="43.5" width="135" height="123" rx="5.5" fill="#18171F" stroke="url(#paint20_linear_811_245)"/>
<rect x="63.5" y="60.5" width="17" height="17" rx="2.5" stroke="#353245" stroke-opacity="0.44"/>
<rect x="63.5" y="96.5" width="17" height="17" rx="2.5" stroke="#353245" stroke-opacity="0.44"/>
<rect x="63.5" y="132.5" width="17" height="17" rx="2.5" stroke="#353245" stroke-opacity="0.44"/>
<g filter="url(#filter0_d_811_245)">
<path fill-rule="evenodd" clip-rule="evenodd" d="M77.3429 66.3496L76.8372 65.8439L70.2879 72.3932L67.4473 69.5526L66.9999 70L70.3461 73.3462L70.3463 73.346L70.3464 73.3462L77.3429 66.3496Z" fill="#C4FFA0" fill-opacity="0.53" shape-rendering="crispEdges"/>
</g>
<g filter="url(#filter1_d_811_245)">
<path fill-rule="evenodd" clip-rule="evenodd" d="M77.3429 102.346L76.8372 101.841L70.2879 108.39L67.4473 105.549L66.9999 105.997L70.3461 109.343L70.3463 109.343L70.3464 109.343L77.3429 102.346Z" fill="#C4FFA0" fill-opacity="0.53" shape-rendering="crispEdges"/>
</g>
<g filter="url(#filter2_d_811_245)">
<path fill-rule="evenodd" clip-rule="evenodd" d="M77.3429 138.346L76.8372 137.841L70.2879 144.39L67.4473 141.549L66.9999 141.997L70.3461 145.343L70.3463 145.343L70.3464 145.343L77.3429 138.346Z" fill="#C4FFA0" fill-opacity="0.53" shape-rendering="crispEdges"/>
</g>
<path d="M95 69C95 66.2386 97.2386 64 100 64H160C162.761 64 165 66.2386 165 69V69C165 71.7614 162.761 74 160 74H100C97.2386 74 95 71.7614 95 69V69Z" fill="#353245" fill-opacity="0.52"/>
<path d="M95 105C95 102.239 97.2386 100 100 100H160C162.761 100 165 102.239 165 105V105C165 107.761 162.761 110 160 110H100C97.2386 110 95 107.761 95 105V105Z" fill="#353245" fill-opacity="0.52"/>
<path d="M95 141C95 138.239 97.2386 136 100 136H160C162.761 136 165 138.239 165 141V141C165 143.761 162.761 146 160 146H100C97.2386 146 95 143.761 95 141V141Z" fill="#353245" fill-opacity="0.52"/>
<defs>
<filter id="filter0_d_811_245" x="66" y="64.8439" width="12.3428" height="9.50222" filterUnits="userSpaceOnUse" color-interpolation-filters="sRGB">
<feFlood flood-opacity="0" result="BackgroundImageFix"/>
<feColorMatrix in="SourceAlpha" type="matrix" values="0 0 0 0 0 0 0 0 0 0 0 0 0 0 0 0 0 0 127 0" result="hardAlpha"/>
<feOffset/>
<feGaussianBlur stdDeviation="0.5"/>
<feComposite in2="hardAlpha" operator="out"/>
<feColorMatrix type="matrix" values="0 0 0 0 1 0 0 0 0 1 0 0 0 0 1 0 0 0 0.5 0"/>
<feBlend mode="normal" in2="BackgroundImageFix" result="effect1_dropShadow_811_245"/>
<feBlend mode="normal" in="SourceGraphic" in2="effect1_dropShadow_811_245" result="shape"/>
</filter>
<filter id="filter1_d_811_245" x="66" y="100.841" width="12.3428" height="9.50222" filterUnits="userSpaceOnUse" color-interpolation-filters="sRGB">
<feFlood flood-opacity="0" result="BackgroundImageFix"/>
<feColorMatrix in="SourceAlpha" type="matrix" values="0 0 0 0 0 0 0 0 0 0 0 0 0 0 0 0 0 0 127 0" result="hardAlpha"/>
<feOffset/>
<feGaussianBlur stdDeviation="0.5"/>
<feComposite in2="hardAlpha" operator="out"/>
<feColorMatrix type="matrix" values="0 0 0 0 1 0 0 0 0 1 0 0 0 0 1 0 0 0 0.5 0"/>
<feBlend mode="normal" in2="BackgroundImageFix" result="effect1_dropShadow_811_245"/>
<feBlend mode="normal" in="SourceGraphic" in2="effect1_dropShadow_811_245" result="shape"/>
</filter>
<filter id="filter2_d_811_245" x="66" y="136.841" width="12.3428" height="9.50222" filterUnits="userSpaceOnUse" color-interpolation-filters="sRGB">
<feFlood flood-opacity="0" result="BackgroundImageFix"/>
<feColorMatrix in="SourceAlpha" type="matrix" values="0 0 0 0 0 0 0 0 0 0 0 0 0 0 0 0 0 0 127 0" result="hardAlpha"/>
<feOffset/>
<feGaussianBlur stdDeviation="0.5"/>
<feComposite in2="hardAlpha" operator="out"/>
<feColorMatrix type="matrix" values="0 0 0 0 1 0 0 0 0 1 0 0 0 0 1 0 0 0 0.5 0"/>
<feBlend mode="normal" in2="BackgroundImageFix" result="effect1_dropShadow_811_245"/>
<feBlend mode="normal" in="SourceGraphic" in2="effect1_dropShadow_811_245" result="shape"/>
</filter>
<radialGradient id="paint0_radial_811_245" cx="0" cy="0" r="1" gradientUnits="userSpaceOnUse" gradientTransform="translate(75.1609 98.5) rotate(90) scale(90.5 260.64)">
<stop stop-color="white"/>
<stop offset="1" stop-color="white" stop-opacity="0"/>
</radialGradient>
<linearGradient id="paint1_linear_811_245" x1="113.5" y1="10.5" x2="188.5" y2="195" gradientUnits="userSpaceOnUse">
<stop stop-color="#B8FF80" stop-opacity="0.42"/>
<stop offset="1" stop-color="#132B01" stop-opacity="0.56"/>
</linearGradient>
<linearGradient id="paint2_linear_811_245" x1="218.5" y1="53" x2="268.5" y2="147.5" gradientUnits="userSpaceOnUse">
<stop stop-color="white"/>
<stop offset="0.5" stop-opacity="0.546875"/>
<stop offset="1" stop-color="white"/>
</linearGradient>
<linearGradient id="paint3_linear_811_245" x1="244.5" y1="49" x2="244.5" y2="151" gradientUnits="userSpaceOnUse">
<stop stop-color="#D1FEBB" stop-opacity="0.21"/>
<stop offset="1" stop-color="#4E534C" stop-opacity="0.29"/>
</linearGradient>
<linearGradient id="paint4_linear_811_245" x1="218.5" y1="166" x2="268.5" y2="260.5" gradientUnits="userSpaceOnUse">
<stop stop-color="white"/>
<stop offset="0.5" stop-opacity="0.546875"/>
<stop offset="1" stop-color="white"/>
</linearGradient>
<linearGradient id="paint5_linear_811_245" x1="244.5" y1="162" x2="244.5" y2="264" gradientUnits="userSpaceOnUse">
<stop stop-color="#D1FEBB" stop-opacity="0.21"/>
<stop offset="1" stop-color="#4E534C" stop-opacity="0.29"/>
</linearGradient>
<linearGradient id="paint6_linear_811_245" x1="218.5" y1="-60" x2="268.5" y2="34.5" gradientUnits="userSpaceOnUse">
<stop stop-color="white"/>
<stop offset="0.5" stop-opacity="0.546875"/>
<stop offset="1" stop-color="white"/>
</linearGradient>
<linearGradient id="paint7_linear_811_245" x1="244.5" y1="-64" x2="244.5" y2="38" gradientUnits="userSpaceOnUse">
<stop stop-color="#D1FEBB" stop-opacity="0.21"/>
<stop offset="1" stop-color="#4E534C" stop-opacity="0.29"/>
</linearGradient>
<linearGradient id="paint8_linear_811_245" x1="155.5" y1="53" x2="205.5" y2="147.5" gradientUnits="userSpaceOnUse">
<stop stop-color="white"/>
<stop offset="0.5" stop-opacity="0.546875"/>
<stop offset="1" stop-color="white"/>
</linearGradient>
<linearGradient id="paint9_linear_811_245" x1="181.5" y1="49" x2="181.5" y2="151" gradientUnits="userSpaceOnUse">
<stop stop-color="#D1FEBB" stop-opacity="0.21"/>
<stop offset="1" stop-color="#4E534C" stop-opacity="0.29"/>
</linearGradient>
<linearGradient id="paint10_linear_811_245" x1="155.5" y1="166" x2="205.5" y2="260.5" gradientUnits="userSpaceOnUse">
<stop stop-color="white"/>
<stop offset="0.5" stop-opacity="0.546875"/>
<stop offset="1" stop-color="white"/>
</linearGradient>
<linearGradient id="paint11_linear_811_245" x1="181.5" y1="162" x2="181.5" y2="264" gradientUnits="userSpaceOnUse">
<stop stop-color="#D1FEBB" stop-opacity="0.21"/>
<stop offset="1" stop-color="#4E534C" stop-opacity="0.29"/>
</linearGradient>
<linearGradient id="paint12_linear_811_245" x1="155.5" y1="-60" x2="205.5" y2="34.5" gradientUnits="userSpaceOnUse">
<stop stop-color="white"/>
<stop offset="0.5" stop-opacity="0.546875"/>
<stop offset="1" stop-color="white"/>
</linearGradient>
<linearGradient id="paint13_linear_811_245" x1="181.5" y1="-64" x2="181.5" y2="38" gradientUnits="userSpaceOnUse">
<stop stop-color="#D1FEBB" stop-opacity="0.21"/>
<stop offset="1" stop-color="#4E534C" stop-opacity="0.29"/>
</linearGradient>
<linearGradient id="paint14_linear_811_245" x1="92.5" y1="53" x2="142.5" y2="147.5" gradientUnits="userSpaceOnUse">
<stop stop-color="white"/>
<stop offset="0.5" stop-opacity="0.546875"/>
<stop offset="1" stop-color="white"/>
</linearGradient>
<linearGradient id="paint15_linear_811_245" x1="118.5" y1="49" x2="118.5" y2="151" gradientUnits="userSpaceOnUse">
<stop stop-color="#D1FEBB" stop-opacity="0.21"/>
<stop offset="1" stop-color="#4E534C" stop-opacity="0.29"/>
</linearGradient>
<linearGradient id="paint16_linear_811_245" x1="92.5" y1="166" x2="142.5" y2="260.5" gradientUnits="userSpaceOnUse">
<stop stop-color="white"/>
<stop offset="0.5" stop-opacity="0.546875"/>
<stop offset="1" stop-color="white"/>
</linearGradient>
<linearGradient id="paint17_linear_811_245" x1="118.5" y1="162" x2="118.5" y2="264" gradientUnits="userSpaceOnUse">
<stop stop-color="#D1FEBB" stop-opacity="0.21"/>
<stop offset="1" stop-color="#4E534C" stop-opacity="0.29"/>
</linearGradient>
<linearGradient id="paint18_linear_811_245" x1="92.5" y1="-60" x2="142.5" y2="34.5" gradientUnits="userSpaceOnUse">
<stop stop-color="white"/>
<stop offset="0.5" stop-opacity="0.546875"/>
<stop offset="1" stop-color="white"/>
</linearGradient>
<linearGradient id="paint19_linear_811_245" x1="118.5" y1="-64" x2="118.5" y2="38" gradientUnits="userSpaceOnUse">
<stop stop-color="#D1FEBB" stop-opacity="0.21"/>
<stop offset="1" stop-color="#4E534C" stop-opacity="0.29"/>
</linearGradient>
<linearGradient id="paint20_linear_811_245" x1="116" y1="43" x2="116" y2="167" gradientUnits="userSpaceOnUse">
<stop stop-color="#B0FFA9" stop-opacity="0.4"/>
<stop offset="1" stop-color="#36472F" stop-opacity="0.46"/>
</linearGradient>
</defs>
</svg>
