<svg width="139" height="120" viewBox="0 0 139 120" fill="none" xmlns="http://www.w3.org/2000/svg">
<path fill-rule="evenodd" clip-rule="evenodd" d="M99 60L83.25 89H51.75L36 60L51.75 31H83.25L99 60Z" fill="white"/>
<g filter="url(#filter0_d_406_17)">
<path fill-rule="evenodd" clip-rule="evenodd" d="M45.3398 20.7273L22.9761 60L45.3398 99.2727H89.6602L112.024 60L89.6602 20.7273H45.3398ZM98.25 6H36.75L6 60L36.75 114H98.25L129 60L98.25 6Z" fill="white"/>
</g>
<mask id="mask0_406_17" style="mask-type:alpha" maskUnits="userSpaceOnUse" x="100" y="60" width="39" height="10">
<path d="M100 60H139V70H100V60Z" fill="white"/>
</mask>
<g mask="url(#mask0_406_17)">
<path fill-rule="evenodd" clip-rule="evenodd" d="M45.3398 20.7273L22.9761 60L45.3398 99.2727H89.6602L112.024 60L89.6602 20.7273H45.3398ZM98.25 6H36.75L6 60L36.75 114H98.25L129 60L98.25 6Z" fill="#9D9D9D"/>
</g>
<defs>
<filter id="filter0_d_406_17" x="0" y="0" width="135" height="120" filterUnits="userSpaceOnUse" color-interpolation-filters="sRGB">
<feFlood flood-opacity="0" result="BackgroundImageFix"/>
<feColorMatrix in="SourceAlpha" type="matrix" values="0 0 0 0 0 0 0 0 0 0 0 0 0 0 0 0 0 0 127 0" result="hardAlpha"/>
<feOffset/>
<feGaussianBlur stdDeviation="3"/>
<feComposite in2="hardAlpha" operator="out"/>
<feColorMatrix type="matrix" values="0 0 0 0 0 0 0 0 0 0 0 0 0 0 0 0 0 0 0.25 0"/>
<feBlend mode="normal" in2="BackgroundImageFix" result="effect1_dropShadow_406_17"/>
<feBlend mode="normal" in="SourceGraphic" in2="effect1_dropShadow_406_17" result="shape"/>
</filter>
</defs>
</svg>
