<svg width="848" height="87" viewBox="0 0 848 87" fill="none" xmlns="http://www.w3.org/2000/svg">
<mask id="mask0_902_2" style="mask-type:alpha" maskUnits="userSpaceOnUse" x="0" y="0" width="848" height="87">
<rect width="848" height="87" fill="url(#paint0_radial_902_2)"/>
</mask>
<g mask="url(#mask0_902_2)">
<path d="M48.0777 32.5C36.1703 37.6864 31.9855 41.4894 33.0777 51C31.0536 41.7643 33.8976 37.4182 48.0777 31.5V32.5Z" fill="#AFAFAF"/>
<path d="M43.0784 26C29.0771 32.5 25.0767 42 33.0784 51C30.5771 41 37.5771 36 48.0771 31.5L43.0784 26Z" fill="url(#paint1_linear_902_2)"/>
<path d="M50.0771 40.48C40.091 45.2514 36.5814 48.7502 37.4974 57.5C35.7999 49.0032 38.185 45.0047 50.0771 39.56V40.48Z" fill="#AFAFAF"/>
<path d="M45.8845 34.5C34.1423 40.48 30.7867 49.22 37.4974 57.5C35.3997 48.3 41.2713 43.7 50.0771 39.56L45.8845 34.5Z" fill="url(#paint2_linear_902_2)"/>
<path d="M51.077 47.18C42.9632 50.9142 40.1117 53.6524 40.8559 60.5C39.4767 53.8503 41.4146 50.7211 51.077 46.46V47.18Z" fill="#AFAFAF"/>
<path d="M48.0771 43C38.5366 47.68 35.4035 54.02 40.8559 60.5C39.1515 53.3 43.9222 49.7 51.077 46.46L48.0771 43Z" fill="url(#paint3_linear_902_2)"/>
<path d="M74.0771 41.5H59.0771V46.5C59.0771 48.7091 60.868 50.5 63.0771 50.5H77.0771V47.5H64.0771C62.9726 47.5 62.0771 46.6046 62.0771 45.5V44.5H74.0771V41.5Z" fill="white"/>
<path d="M77.0771 36V39H59.0771C59.0771 37.3431 60.4203 36 62.0771 36H77.0771Z" fill="white"/>
<path d="M82.0771 36H79.0771V46.5C79.0771 48.7091 80.868 50.5 83.0771 50.5H97.0771V47.5H84.0771C82.9726 47.5 82.0771 46.6046 82.0771 45.5V36Z" fill="white"/>
<path d="M114.077 41.5H99.0771V46.5C99.0771 48.7091 100.868 50.5 103.077 50.5H117.077V47.5H104.077C102.973 47.5 102.077 46.6046 102.077 45.5V44.5H114.077V41.5Z" fill="white"/>
<path d="M117.077 36V39H99.0771C99.0771 37.3431 100.42 36 102.077 36H117.077Z" fill="white"/>
<path d="M137.077 47.5V50.5H123.077C120.868 50.5 119.077 48.7091 119.077 46.5V40C119.077 37.7909 120.868 36 123.077 36H137.077V39H124.077C122.973 39 122.077 39.8954 122.077 41V45.5C122.077 46.6046 122.973 47.5 124.077 47.5H137.077Z" fill="white"/>
<path d="M144.077 47.5H152.077C153.182 47.5 154.077 46.6046 154.077 45.5V39.5H157.077V46.5C157.077 48.7091 155.286 50.5 153.077 50.5H143.077C140.868 50.5 139.077 48.7091 139.077 46.5V40C139.077 37.7909 140.868 36 143.077 36H152.577V39H144.077C142.973 39 142.077 39.8954 142.077 41V45.5C142.077 46.6046 142.973 47.5 144.077 47.5Z" fill="white"/>
<path d="M154.077 41V46.5H157.077V40C157.077 37.7909 155.286 36 153.077 36H150.077V39H152.077C153.182 39 154.077 39.8954 154.077 41Z" fill="white"/>
<path d="M162.077 50.5H159.077V36H162.077L174.577 46.5V36H177.577V50.5H175.077L162.077 40V50.5Z" fill="white"/>
<path fill-rule="evenodd" clip-rule="evenodd" d="M228.077 42C228.077 42.6268 228.113 43.245 228.183 43.8523C227.47 42.0466 227.077 40.0707 227.077 38C227.077 35.9745 227.453 34.0398 228.137 32.2663C225.033 35.0144 223.077 39.0288 223.077 43.5C223.077 51.7843 229.793 58.5 238.077 58.5C246.361 58.5 253.077 51.7843 253.077 43.5C253.077 35.2157 246.361 28.5 238.077 28.5C237.118 28.5 236.179 28.5901 235.27 28.7622C230.956 31.4844 228.077 36.3947 228.077 42Z" fill="#CCCCCC"/>
<path fill-rule="evenodd" clip-rule="evenodd" d="M228.183 43.8523C228.113 43.245 228.077 42.6269 228.077 42C228.077 36.3948 230.956 31.4845 235.27 28.7622C235.925 28.6382 236.595 28.5568 237.277 28.521C243.303 28.8828 248.077 33.8838 248.077 40C248.077 46.3513 242.928 51.5 236.577 51.5C230.226 51.5 225.077 46.3513 225.077 40C225.077 37.1779 226.094 34.5931 227.781 32.592C227.898 32.4816 228.016 32.373 228.137 32.2663C227.453 34.0399 227.077 35.9746 227.077 38C227.077 40.0707 227.47 42.0466 228.183 43.8523Z" fill="url(#paint4_linear_902_2)"/>
<path d="M271.409 40.348C272.657 40.348 273.647 40.726 274.379 41.482C275.123 42.238 275.495 43.288 275.495 44.632V50.5H272.435V45.046C272.435 44.398 272.261 43.9 271.913 43.552C271.577 43.192 271.109 43.012 270.509 43.012C269.909 43.012 269.435 43.192 269.087 43.552C268.751 43.9 268.583 44.398 268.583 45.046V50.5H265.523V45.046C265.523 44.398 265.349 43.9 265.001 43.552C264.665 43.192 264.197 43.012 263.597 43.012C262.997 43.012 262.523 43.192 262.175 43.552C261.839 43.9 261.671 44.398 261.671 45.046V50.5H258.593V40.456H261.671V41.716C261.983 41.296 262.391 40.966 262.895 40.726C263.399 40.474 263.969 40.348 264.605 40.348C265.361 40.348 266.033 40.51 266.621 40.834C267.221 41.158 267.689 41.62 268.025 42.22C268.373 41.668 268.847 41.218 269.447 40.87C270.047 40.522 270.701 40.348 271.409 40.348ZM287.115 45.316C287.115 45.604 287.097 45.904 287.061 46.216H280.095C280.143 46.84 280.341 47.32 280.689 47.656C281.049 47.98 281.487 48.142 282.003 48.142C282.771 48.142 283.305 47.818 283.605 47.17H286.881C286.713 47.83 286.407 48.424 285.963 48.952C285.531 49.48 284.985 49.894 284.325 50.194C283.665 50.494 282.927 50.644 282.111 50.644C281.127 50.644 280.251 50.434 279.483 50.014C278.715 49.594 278.115 48.994 277.683 48.214C277.251 47.434 277.035 46.522 277.035 45.478C277.035 44.434 277.245 43.522 277.665 42.742C278.097 41.962 278.697 41.362 279.465 40.942C280.233 40.522 281.115 40.312 282.111 40.312C283.083 40.312 283.947 40.516 284.703 40.924C285.459 41.332 286.047 41.914 286.467 42.67C286.899 43.426 287.115 44.308 287.115 45.316ZM283.965 44.506C283.965 43.978 283.785 43.558 283.425 43.246C283.065 42.934 282.615 42.778 282.075 42.778C281.559 42.778 281.121 42.928 280.761 43.228C280.413 43.528 280.197 43.954 280.113 44.506H283.965ZM294.337 47.89V50.5H292.771C291.655 50.5 290.785 50.23 290.161 49.69C289.537 49.138 289.225 48.244 289.225 47.008V43.012H288.001V40.456H289.225V38.008H292.303V40.456H294.319V43.012H292.303V47.044C292.303 47.344 292.375 47.56 292.519 47.692C292.663 47.824 292.903 47.89 293.239 47.89H294.337ZM295.44 45.46C295.44 44.428 295.632 43.522 296.016 42.742C296.412 41.962 296.946 41.362 297.618 40.942C298.29 40.522 299.04 40.312 299.868 40.312C300.576 40.312 301.194 40.456 301.722 40.744C302.262 41.032 302.676 41.41 302.964 41.878V40.456H306.042V50.5H302.964V49.078C302.664 49.546 302.244 49.924 301.704 50.212C301.176 50.5 300.558 50.644 299.85 50.644C299.034 50.644 298.29 50.434 297.618 50.014C296.946 49.582 296.412 48.976 296.016 48.196C295.632 47.404 295.44 46.492 295.44 45.46ZM302.964 45.478C302.964 44.71 302.748 44.104 302.316 43.66C301.896 43.216 301.38 42.994 300.768 42.994C300.156 42.994 299.634 43.216 299.202 43.66C298.782 44.092 298.572 44.692 298.572 45.46C298.572 46.228 298.782 46.84 299.202 47.296C299.634 47.74 300.156 47.962 300.768 47.962C301.38 47.962 301.896 47.74 302.316 47.296C302.748 46.852 302.964 46.246 302.964 45.478ZM307.656 45.478C307.656 44.434 307.866 43.522 308.286 42.742C308.718 41.962 309.312 41.362 310.068 40.942C310.836 40.522 311.712 40.312 312.696 40.312C313.956 40.312 315.006 40.642 315.846 41.302C316.698 41.962 317.256 42.892 317.52 44.092H314.244C313.968 43.324 313.434 42.94 312.642 42.94C312.078 42.94 311.628 43.162 311.292 43.606C310.956 44.038 310.788 44.662 310.788 45.478C310.788 46.294 310.956 46.924 311.292 47.368C311.628 47.8 312.078 48.016 312.642 48.016C313.434 48.016 313.968 47.632 314.244 46.864H317.52C317.256 48.04 316.698 48.964 315.846 49.636C314.994 50.308 313.944 50.644 312.696 50.644C311.712 50.644 310.836 50.434 310.068 50.014C309.312 49.594 308.718 48.994 308.286 48.214C307.866 47.434 307.656 46.522 307.656 45.478ZM323.739 50.644C322.755 50.644 321.867 50.434 321.075 50.014C320.295 49.594 319.677 48.994 319.221 48.214C318.777 47.434 318.555 46.522 318.555 45.478C318.555 44.446 318.783 43.54 319.239 42.76C319.695 41.968 320.319 41.362 321.111 40.942C321.903 40.522 322.791 40.312 323.775 40.312C324.759 40.312 325.647 40.522 326.439 40.942C327.231 41.362 327.855 41.968 328.311 42.76C328.767 43.54 328.995 44.446 328.995 45.478C328.995 46.51 328.761 47.422 328.293 48.214C327.837 48.994 327.207 49.594 326.403 50.014C325.611 50.434 324.723 50.644 323.739 50.644ZM323.739 47.98C324.327 47.98 324.825 47.764 325.233 47.332C325.653 46.9 325.863 46.282 325.863 45.478C325.863 44.674 325.659 44.056 325.251 43.624C324.855 43.192 324.363 42.976 323.775 42.976C323.175 42.976 322.677 43.192 322.281 43.624C321.885 44.044 321.687 44.662 321.687 45.478C321.687 46.282 321.879 46.9 322.263 47.332C322.659 47.764 323.151 47.98 323.739 47.98ZM336.748 40.348C337.924 40.348 338.86 40.732 339.556 41.5C340.264 42.256 340.618 43.3 340.618 44.632V50.5H337.558V45.046C337.558 44.374 337.384 43.852 337.036 43.48C336.688 43.108 336.22 42.922 335.632 42.922C335.044 42.922 334.576 43.108 334.228 43.48C333.88 43.852 333.706 44.374 333.706 45.046V50.5H330.628V40.456H333.706V41.788C334.018 41.344 334.438 40.996 334.966 40.744C335.494 40.48 336.088 40.348 336.748 40.348ZM346.843 50.644C345.967 50.644 345.187 50.494 344.503 50.194C343.819 49.894 343.279 49.486 342.883 48.97C342.487 48.442 342.265 47.854 342.217 47.206H345.259C345.295 47.554 345.457 47.836 345.745 48.052C346.033 48.268 346.387 48.376 346.807 48.376C347.191 48.376 347.485 48.304 347.689 48.16C347.905 48.004 348.013 47.806 348.013 47.566C348.013 47.278 347.863 47.068 347.563 46.936C347.263 46.792 346.777 46.636 346.105 46.468C345.385 46.3 344.785 46.126 344.305 45.946C343.825 45.754 343.411 45.46 343.063 45.064C342.715 44.656 342.541 44.11 342.541 43.426C342.541 42.85 342.697 42.328 343.009 41.86C343.333 41.38 343.801 41.002 344.413 40.726C345.037 40.45 345.775 40.312 346.627 40.312C347.887 40.312 348.877 40.624 349.597 41.248C350.329 41.872 350.749 42.7 350.857 43.732H348.013C347.965 43.384 347.809 43.108 347.545 42.904C347.293 42.7 346.957 42.598 346.537 42.598C346.177 42.598 345.901 42.67 345.709 42.814C345.517 42.946 345.421 43.132 345.421 43.372C345.421 43.66 345.571 43.876 345.871 44.02C346.183 44.164 346.663 44.308 347.311 44.452C348.055 44.644 348.661 44.836 349.129 45.028C349.597 45.208 350.005 45.508 350.353 45.928C350.713 46.336 350.899 46.888 350.911 47.584C350.911 48.172 350.743 48.7 350.407 49.168C350.083 49.624 349.609 49.984 348.985 50.248C348.373 50.512 347.659 50.644 346.843 50.644Z" fill="white"/>
<path d="M412.577 55.5H405.577L419.077 32.5L433.077 55.5H425.077L419.077 45L412.577 55.5Z" fill="white" stroke="#9E9E9E"/>
<path d="M422.577 55.5H415.077L420.577 47L424.077 53L422.577 55.5Z" fill="white" stroke="#9E9E9E"/>
<path d="M420.675 47.622L415.577 55.5L410.077 47H420.327L415.577 38.5L419.077 32.5L433.077 55.5H425.077L420.675 47.622Z" fill="#9E9E9E"/>
<path d="M439.497 50.626C439.221 50.626 439.005 50.548 438.849 50.392C438.705 50.236 438.633 50.02 438.633 49.744V38.566C438.633 38.278 438.711 38.062 438.867 37.918C439.023 37.762 439.233 37.684 439.497 37.684C439.749 37.684 439.941 37.732 440.073 37.828C440.217 37.912 440.349 38.068 440.469 38.296L445.185 47.098H444.627L449.325 38.296C449.445 38.068 449.571 37.912 449.703 37.828C449.835 37.732 450.027 37.684 450.279 37.684C450.543 37.684 450.747 37.762 450.891 37.918C451.035 38.062 451.107 38.278 451.107 38.566V49.744C451.107 50.02 451.035 50.236 450.891 50.392C450.759 50.548 450.555 50.626 450.279 50.626C450.003 50.626 449.793 50.548 449.649 50.392C449.505 50.236 449.433 50.02 449.433 49.744V40.456H449.829L445.653 48.178C445.557 48.358 445.455 48.49 445.347 48.574C445.239 48.658 445.089 48.7 444.897 48.7C444.705 48.7 444.549 48.658 444.429 48.574C444.309 48.478 444.201 48.346 444.105 48.178L439.893 40.438H440.325V49.744C440.325 50.02 440.253 50.236 440.109 50.392C439.977 50.548 439.773 50.626 439.497 50.626ZM456.711 50.662C456.099 50.662 455.547 50.542 455.055 50.302C454.575 50.062 454.197 49.738 453.921 49.33C453.645 48.922 453.507 48.46 453.507 47.944C453.507 47.296 453.669 46.786 453.993 46.414C454.329 46.03 454.875 45.76 455.631 45.604C456.399 45.436 457.431 45.352 458.727 45.352H459.573V46.468H458.745C457.881 46.468 457.197 46.51 456.693 46.594C456.189 46.678 455.829 46.822 455.613 47.026C455.409 47.218 455.307 47.488 455.307 47.836C455.307 48.292 455.463 48.664 455.775 48.952C456.087 49.228 456.519 49.366 457.071 49.366C457.515 49.366 457.905 49.264 458.241 49.06C458.577 48.844 458.841 48.556 459.033 48.196C459.237 47.836 459.339 47.422 459.339 46.954V44.884C459.339 44.2 459.195 43.708 458.907 43.408C458.619 43.108 458.145 42.958 457.485 42.958C457.101 42.958 456.699 43.006 456.279 43.102C455.871 43.198 455.445 43.36 455.001 43.588C454.797 43.684 454.623 43.714 454.479 43.678C454.335 43.642 454.221 43.564 454.137 43.444C454.053 43.312 454.005 43.174 453.993 43.03C453.993 42.874 454.029 42.724 454.101 42.58C454.185 42.436 454.323 42.328 454.515 42.256C455.043 42.004 455.565 41.824 456.081 41.716C456.597 41.608 457.083 41.554 457.539 41.554C458.343 41.554 459.003 41.68 459.519 41.932C460.047 42.184 460.437 42.568 460.689 43.084C460.941 43.6 461.067 44.266 461.067 45.082V49.708C461.067 49.996 460.995 50.224 460.851 50.392C460.707 50.548 460.497 50.626 460.221 50.626C459.957 50.626 459.747 50.548 459.591 50.392C459.435 50.224 459.357 49.996 459.357 49.708V48.538H459.519C459.423 48.982 459.243 49.366 458.979 49.69C458.727 50.002 458.409 50.242 458.025 50.41C457.641 50.578 457.203 50.662 456.711 50.662ZM466.649 50.662C466.121 50.662 465.575 50.602 465.011 50.482C464.459 50.362 463.949 50.158 463.481 49.87C463.325 49.762 463.217 49.642 463.157 49.51C463.097 49.378 463.073 49.246 463.085 49.114C463.109 48.97 463.163 48.85 463.247 48.754C463.343 48.646 463.457 48.58 463.589 48.556C463.733 48.532 463.883 48.562 464.039 48.646C464.507 48.91 464.957 49.096 465.389 49.204C465.821 49.3 466.247 49.348 466.667 49.348C467.303 49.348 467.783 49.234 468.107 49.006C468.431 48.778 468.593 48.472 468.593 48.088C468.593 47.776 468.485 47.536 468.269 47.368C468.053 47.188 467.729 47.05 467.297 46.954L465.587 46.612C464.843 46.456 464.279 46.18 463.895 45.784C463.511 45.388 463.319 44.884 463.319 44.272C463.319 43.72 463.469 43.24 463.769 42.832C464.069 42.424 464.489 42.112 465.029 41.896C465.569 41.668 466.193 41.554 466.901 41.554C467.429 41.554 467.927 41.62 468.395 41.752C468.863 41.884 469.295 42.082 469.691 42.346C469.847 42.43 469.949 42.544 469.997 42.688C470.045 42.82 470.051 42.952 470.015 43.084C469.991 43.216 469.931 43.336 469.835 43.444C469.739 43.54 469.619 43.6 469.475 43.624C469.343 43.636 469.193 43.6 469.025 43.516C468.665 43.288 468.305 43.126 467.945 43.03C467.597 42.934 467.249 42.886 466.901 42.886C466.265 42.886 465.785 43.006 465.461 43.246C465.149 43.474 464.993 43.786 464.993 44.182C464.993 44.482 465.089 44.728 465.281 44.92C465.473 45.112 465.773 45.25 466.181 45.334L467.891 45.676C468.671 45.832 469.259 46.096 469.655 46.468C470.063 46.84 470.267 47.344 470.267 47.98C470.267 48.808 469.937 49.462 469.277 49.942C468.617 50.422 467.741 50.662 466.649 50.662ZM475.368 50.662C474.84 50.662 474.294 50.602 473.73 50.482C473.178 50.362 472.668 50.158 472.2 49.87C472.044 49.762 471.936 49.642 471.876 49.51C471.816 49.378 471.792 49.246 471.804 49.114C471.828 48.97 471.882 48.85 471.966 48.754C472.062 48.646 472.176 48.58 472.308 48.556C472.452 48.532 472.602 48.562 472.758 48.646C473.226 48.91 473.676 49.096 474.108 49.204C474.54 49.3 474.966 49.348 475.386 49.348C476.022 49.348 476.502 49.234 476.826 49.006C477.15 48.778 477.312 48.472 477.312 48.088C477.312 47.776 477.204 47.536 476.988 47.368C476.772 47.188 476.448 47.05 476.016 46.954L474.306 46.612C473.562 46.456 472.998 46.18 472.614 45.784C472.23 45.388 472.038 44.884 472.038 44.272C472.038 43.72 472.188 43.24 472.488 42.832C472.788 42.424 473.208 42.112 473.748 41.896C474.288 41.668 474.912 41.554 475.62 41.554C476.148 41.554 476.646 41.62 477.114 41.752C477.582 41.884 478.014 42.082 478.41 42.346C478.566 42.43 478.668 42.544 478.716 42.688C478.764 42.82 478.77 42.952 478.734 43.084C478.71 43.216 478.65 43.336 478.554 43.444C478.458 43.54 478.338 43.6 478.194 43.624C478.062 43.636 477.912 43.6 477.744 43.516C477.384 43.288 477.024 43.126 476.664 43.03C476.316 42.934 475.968 42.886 475.62 42.886C474.984 42.886 474.504 43.006 474.18 43.246C473.868 43.474 473.712 43.786 473.712 44.182C473.712 44.482 473.808 44.728 474 44.92C474.192 45.112 474.492 45.25 474.9 45.334L476.61 45.676C477.39 45.832 477.978 46.096 478.374 46.468C478.782 46.84 478.986 47.344 478.986 47.98C478.986 48.808 478.656 49.462 477.996 49.942C477.336 50.422 476.46 50.662 475.368 50.662ZM483.816 50.662C483.204 50.662 482.652 50.542 482.16 50.302C481.68 50.062 481.302 49.738 481.026 49.33C480.75 48.922 480.612 48.46 480.612 47.944C480.612 47.296 480.774 46.786 481.098 46.414C481.434 46.03 481.98 45.76 482.736 45.604C483.504 45.436 484.536 45.352 485.832 45.352H486.678V46.468H485.85C484.986 46.468 484.302 46.51 483.798 46.594C483.294 46.678 482.934 46.822 482.718 47.026C482.514 47.218 482.412 47.488 482.412 47.836C482.412 48.292 482.568 48.664 482.88 48.952C483.192 49.228 483.624 49.366 484.176 49.366C484.62 49.366 485.01 49.264 485.346 49.06C485.682 48.844 485.946 48.556 486.138 48.196C486.342 47.836 486.444 47.422 486.444 46.954V44.884C486.444 44.2 486.3 43.708 486.012 43.408C485.724 43.108 485.25 42.958 484.59 42.958C484.206 42.958 483.804 43.006 483.384 43.102C482.976 43.198 482.55 43.36 482.106 43.588C481.902 43.684 481.728 43.714 481.584 43.678C481.44 43.642 481.326 43.564 481.242 43.444C481.158 43.312 481.11 43.174 481.098 43.03C481.098 42.874 481.134 42.724 481.206 42.58C481.29 42.436 481.428 42.328 481.62 42.256C482.148 42.004 482.67 41.824 483.186 41.716C483.702 41.608 484.188 41.554 484.644 41.554C485.448 41.554 486.108 41.68 486.624 41.932C487.152 42.184 487.542 42.568 487.794 43.084C488.046 43.6 488.172 44.266 488.172 45.082V49.708C488.172 49.996 488.1 50.224 487.956 50.392C487.812 50.548 487.602 50.626 487.326 50.626C487.062 50.626 486.852 50.548 486.696 50.392C486.54 50.224 486.462 49.996 486.462 49.708V48.538H486.624C486.528 48.982 486.348 49.366 486.084 49.69C485.832 50.002 485.514 50.242 485.13 50.41C484.746 50.578 484.308 50.662 483.816 50.662ZM494.024 50.662C493.256 50.662 492.578 50.482 491.99 50.122C491.414 49.75 490.964 49.222 490.64 48.538C490.316 47.842 490.154 47.032 490.154 46.108C490.154 45.16 490.316 44.35 490.64 43.678C490.964 43.006 491.414 42.484 491.99 42.112C492.578 41.74 493.256 41.554 494.024 41.554C494.792 41.554 495.452 41.746 496.004 42.13C496.568 42.502 496.946 43.006 497.138 43.642H496.94V38.602C496.94 38.302 497.018 38.074 497.174 37.918C497.33 37.762 497.552 37.684 497.84 37.684C498.128 37.684 498.35 37.762 498.506 37.918C498.674 38.074 498.758 38.302 498.758 38.602V49.708C498.758 49.996 498.68 50.224 498.524 50.392C498.368 50.548 498.146 50.626 497.858 50.626C497.57 50.626 497.348 50.548 497.192 50.392C497.036 50.224 496.958 49.996 496.958 49.708V48.124L497.156 48.52C496.964 49.168 496.586 49.69 496.022 50.086C495.47 50.47 494.804 50.662 494.024 50.662ZM494.492 49.258C494.984 49.258 495.416 49.138 495.788 48.898C496.16 48.658 496.448 48.304 496.652 47.836C496.868 47.368 496.976 46.792 496.976 46.108C496.976 45.076 496.748 44.296 496.292 43.768C495.836 43.24 495.236 42.976 494.492 42.976C493.988 42.976 493.55 43.096 493.178 43.336C492.806 43.564 492.512 43.912 492.296 44.38C492.092 44.848 491.99 45.424 491.99 46.108C491.99 47.128 492.218 47.908 492.674 48.448C493.13 48.988 493.736 49.258 494.492 49.258Z" fill="white"/>
<rect x="554.077" y="28.5" width="29" height="29" rx="5" fill="white"/>
<path d="M560.077 51.5L560.077 34.5L568.077 43L560.077 51.5Z" fill="#BCBCBC" stroke="#6B6B6B" stroke-width="8" stroke-linejoin="round"/>
<path d="M577.077 34.5L577.077 51.5L569.077 43L577.077 34.5Z" fill="#FEFEFE" stroke="#6B6B6B" stroke-width="8" stroke-linejoin="round"/>
<path d="M561.077 49.5L561.077 36.5L567.077 43L561.077 49.5Z" fill="#BCBCBC"/>
<path d="M576.077 36.5L576.077 49.5L570.077 43L576.077 36.5Z" fill="#FEFEFE"/>
<path d="M591.369 48.5V35.9H592.467L598.227 45.728H597.651L603.357 35.9H604.455V48.5H603.177V37.898H603.483L598.227 46.898H597.597L592.305 37.898H592.647V48.5H591.369ZM604.835 48.5L610.595 35.9H611.909L617.669 48.5H616.265L610.973 36.674H611.513L606.221 48.5H604.835ZM607.103 45.134L607.499 44.054H614.825L615.221 45.134H607.103ZM618.043 48.5V35.9H623.479C624.883 35.9 625.969 36.182 626.737 36.746C627.517 37.31 627.907 38.108 627.907 39.14C627.907 39.824 627.745 40.4 627.421 40.868C627.109 41.336 626.677 41.69 626.125 41.93C625.585 42.17 624.991 42.29 624.343 42.29L624.649 41.858C625.453 41.858 626.143 41.984 626.719 42.236C627.307 42.476 627.763 42.842 628.087 43.334C628.411 43.814 628.573 44.414 628.573 45.134C628.573 46.202 628.177 47.03 627.385 47.618C626.605 48.206 625.423 48.5 623.839 48.5H618.043ZM619.375 47.402H623.821C624.925 47.402 625.771 47.216 626.359 46.844C626.947 46.46 627.241 45.854 627.241 45.026C627.241 44.21 626.947 43.616 626.359 43.244C625.771 42.86 624.925 42.668 623.821 42.668H619.231V41.57H623.389C624.397 41.57 625.177 41.378 625.729 40.994C626.293 40.61 626.575 40.04 626.575 39.284C626.575 38.516 626.293 37.946 625.729 37.574C625.177 37.19 624.397 36.998 623.389 36.998H619.375V47.402ZM631.092 41.534H637.752V42.668H631.092V41.534ZM631.236 47.348H638.814V48.5H629.904V35.9H638.544V37.052H631.236V47.348ZM638.33 48.5L643.496 41.516V42.542L638.636 35.9H640.166L644.252 41.444L643.658 41.462L647.744 35.9H649.184L644.378 42.452V41.516L649.526 48.5H647.978L643.622 42.578H644.18L639.86 48.5H638.33Z" fill="white"/>
<path fill-rule="evenodd" clip-rule="evenodd" d="M716.577 44V52.5H725.577V33.5L723.863 35.5H725.077V37.5H723.077V36.4167L721.291 38.5H722.577V40.5H720.577V39.3333L718.72 41.5H720.077V43.5H718.077V42.25L716.577 44ZM725.077 43.5H723.077V41.5H725.077V43.5ZM723.077 40.5H725.077V38.5H723.077V40.5ZM720.577 43.5H722.577V41.5H720.577V43.5Z" fill="#9D9D9D"/>
<path d="M724.927 41.65V43.35H723.227V41.65H724.927Z" stroke="white" stroke-width="0.3"/>
<path d="M719.927 41.65V43.35H718.227V41.65H719.927Z" stroke="white" stroke-width="0.3"/>
<path d="M719.927 38.65V40.35H718.227V38.65H719.927Z" stroke="white" stroke-width="0.3"/>
<path d="M719.927 35.65V37.35H718.227V35.65H719.927Z" stroke="white" stroke-width="0.3"/>
<path d="M724.927 35.65V37.35H723.227V35.65H724.927Z" stroke="white" stroke-width="0.3"/>
<path d="M722.427 35.65V37.35H720.727V35.65H722.427Z" stroke="white" stroke-width="0.3"/>
<path d="M722.427 38.65V40.35H720.727V38.65H722.427Z" stroke="white" stroke-width="0.3"/>
<path d="M722.427 41.65V43.35H720.727V41.65H722.427Z" stroke="white" stroke-width="0.3"/>
<path d="M724.927 38.65V40.35H723.227V38.65H724.927Z" stroke="white" stroke-width="0.3"/>
<path fill-rule="evenodd" clip-rule="evenodd" d="M716.577 33.5H725.577L723.863 35.5H723.077V36.4167L722.577 37V35.5H720.577V37.5H722.149L721.291 38.5H720.577V39.3333L720.077 39.9167V38.5H718.077V40.5H719.577L718.72 41.5H718.077V42.25L716.577 44V33.5ZM718.077 37.5H720.077V35.5H718.077V37.5Z" fill="#656565"/>
<path d="M709.077 40.5H692.577V33.5H713.077L716.577 39V52.5L709.077 40.5Z" fill="#505050"/>
<path d="M700.077 52.5L698.077 51V40.5H700.077V52.5Z" fill="#868686"/>
<path d="M690.577 39L692.577 40.5V33.5H713.077L711.577 32H690.577V39Z" fill="#868686"/>
<path d="M716.577 52.5L709.077 40.5V42.5L714.577 51.5L716.577 52.5Z" fill="#868686"/>
<path d="M716.577 33.5V39L715.077 36.5V32H724.077L725.577 33.5H716.577Z" fill="#868686"/>
<path d="M700.077 52.5V40.5H709.077V52.5H700.077Z" fill="#656565"/>
<path d="M732.697 48.5V36.21H735.327V48.5H732.697ZM729.057 37.91V35.72H738.947V37.91H729.057ZM743.895 48.74C742.215 48.74 740.965 48.3533 740.145 47.58C739.325 46.8067 738.915 45.6867 738.915 44.22V42.94C738.915 41.4867 739.298 40.37 740.065 39.59C740.832 38.81 741.945 38.42 743.405 38.42C744.392 38.42 745.215 38.5933 745.875 38.94C746.535 39.2867 747.028 39.78 747.355 40.42C747.688 41.0533 747.855 41.8133 747.855 42.7V43.05C747.855 43.29 747.842 43.5367 747.815 43.79C747.795 44.0367 747.765 44.27 747.725 44.49H745.405C745.425 44.1233 745.435 43.7767 745.435 43.45C745.442 43.1167 745.445 42.8167 745.445 42.55C745.445 42.09 745.372 41.7 745.225 41.38C745.078 41.0533 744.855 40.8067 744.555 40.64C744.255 40.4733 743.872 40.39 743.405 40.39C742.718 40.39 742.212 40.58 741.885 40.96C741.558 41.34 741.395 41.88 741.395 42.58V43.49L741.405 43.78V44.55C741.405 44.8567 741.452 45.14 741.545 45.4C741.645 45.66 741.808 45.8867 742.035 46.08C742.262 46.2667 742.562 46.4133 742.935 46.52C743.315 46.6267 743.788 46.68 744.355 46.68C744.968 46.68 745.552 46.6133 746.105 46.48C746.665 46.34 747.195 46.1533 747.695 45.92L747.475 47.94C747.028 48.1867 746.502 48.38 745.895 48.52C745.295 48.6667 744.628 48.74 743.895 48.74ZM740.275 44.49V42.79H747.205V44.49H740.275ZM752.146 42.8L751.496 41.09H752.116C752.296 40.2967 752.623 39.6733 753.096 39.22C753.569 38.7667 754.226 38.54 755.066 38.54C755.239 38.54 755.396 38.5533 755.536 38.58C755.676 38.6 755.803 38.6267 755.916 38.66L756.056 41.22C755.909 41.1733 755.739 41.14 755.546 41.12C755.353 41.0933 755.149 41.08 754.936 41.08C754.256 41.08 753.676 41.23 753.196 41.53C752.723 41.83 752.373 42.2533 752.146 42.8ZM749.656 48.5V38.69H752.096L751.986 41.7L752.216 41.79V48.5H749.656ZM759.9 42.8L759.25 41.09H759.87C760.05 40.2967 760.377 39.6733 760.85 39.22C761.323 38.7667 761.98 38.54 762.82 38.54C762.993 38.54 763.15 38.5533 763.29 38.58C763.43 38.6 763.557 38.6267 763.67 38.66L763.81 41.22C763.663 41.1733 763.493 41.14 763.3 41.12C763.107 41.0933 762.903 41.08 762.69 41.08C762.01 41.08 761.43 41.23 760.95 41.53C760.477 41.83 760.127 42.2533 759.9 42.8ZM757.41 48.5V38.69H759.85L759.74 41.7L759.97 41.79V48.5H757.41ZM770.61 48.5L770.7 46.1L770.63 45.88V42.81L770.62 42.37C770.62 41.73 770.443 41.26 770.09 40.96C769.743 40.66 769.173 40.51 768.38 40.51C767.706 40.51 767.073 40.6 766.48 40.78C765.893 40.9533 765.35 41.1567 764.85 41.39L765.07 39.35C765.363 39.1967 765.696 39.0533 766.07 38.92C766.45 38.78 766.873 38.6667 767.34 38.58C767.806 38.4933 768.31 38.45 768.85 38.45C769.65 38.45 770.326 38.5467 770.88 38.74C771.433 38.9267 771.873 39.1967 772.2 39.55C772.533 39.9033 772.773 40.3267 772.92 40.82C773.066 41.3067 773.14 41.8467 773.14 42.44V48.5H770.61ZM767.4 48.73C766.426 48.73 765.683 48.4867 765.17 48C764.663 47.5133 764.41 46.82 764.41 45.92V45.64C764.41 44.6867 764.703 43.9833 765.29 43.53C765.876 43.07 766.806 42.7533 768.08 42.58L770.86 42.2L771.01 43.85L768.45 44.22C767.89 44.2933 767.49 44.4267 767.25 44.62C767.016 44.8133 766.9 45.0967 766.9 45.47V45.57C766.9 45.9367 767.013 46.2233 767.24 46.43C767.473 46.63 767.836 46.73 768.33 46.73C768.77 46.73 769.146 46.66 769.46 46.52C769.773 46.38 770.03 46.1967 770.23 45.97C770.436 45.7367 770.583 45.4767 770.67 45.19L771.03 46.46H770.59C770.483 46.88 770.31 47.2633 770.07 47.61C769.836 47.95 769.506 48.2233 769.08 48.43C768.653 48.63 768.093 48.73 767.4 48.73ZM779.122 35.72L783.142 45.64H783.272L783.162 40.19V35.72H785.672V48.5H782.052L777.932 38.4H777.802L777.912 44.02V48.5H775.392V35.72H779.122ZM792.315 48.77C790.795 48.77 789.641 48.38 788.855 47.6C788.075 46.82 787.685 45.71 787.685 44.27V42.94C787.685 41.4933 788.075 40.38 788.855 39.6C789.641 38.8133 790.795 38.42 792.315 38.42C793.828 38.42 794.975 38.8133 795.755 39.6C796.535 40.38 796.925 41.4933 796.925 42.94V44.27C796.925 45.71 796.535 46.82 795.755 47.6C794.981 48.38 793.835 48.77 792.315 48.77ZM792.315 46.72C792.981 46.72 793.488 46.52 793.835 46.12C794.188 45.72 794.365 45.1467 794.365 44.4V42.81C794.365 42.05 794.188 41.47 793.835 41.07C793.488 40.6633 792.981 40.46 792.315 40.46C791.641 40.46 791.128 40.6633 790.775 41.07C790.428 41.47 790.255 42.05 790.255 42.81V44.4C790.255 45.1467 790.428 45.72 790.775 46.12C791.128 46.52 791.641 46.72 792.315 46.72ZM802.654 46.8L804.764 38.69H807.404L804.604 48.5H800.464L797.654 38.69H800.314L802.424 46.8H802.654ZM814.145 48.5L814.235 46.1L814.165 45.88V42.81L814.155 42.37C814.155 41.73 813.978 41.26 813.625 40.96C813.278 40.66 812.708 40.51 811.915 40.51C811.241 40.51 810.608 40.6 810.015 40.78C809.428 40.9533 808.885 41.1567 808.385 41.39L808.605 39.35C808.898 39.1967 809.231 39.0533 809.605 38.92C809.985 38.78 810.408 38.6667 810.875 38.58C811.341 38.4933 811.845 38.45 812.385 38.45C813.185 38.45 813.861 38.5467 814.415 38.74C814.968 38.9267 815.408 39.1967 815.735 39.55C816.068 39.9033 816.308 40.3267 816.455 40.82C816.601 41.3067 816.675 41.8467 816.675 42.44V48.5H814.145ZM810.935 48.73C809.961 48.73 809.218 48.4867 808.705 48C808.198 47.5133 807.945 46.82 807.945 45.92V45.64C807.945 44.6867 808.238 43.9833 808.825 43.53C809.411 43.07 810.341 42.7533 811.615 42.58L814.395 42.2L814.545 43.85L811.985 44.22C811.425 44.2933 811.025 44.4267 810.785 44.62C810.551 44.8133 810.435 45.0967 810.435 45.47V45.57C810.435 45.9367 810.548 46.2233 810.775 46.43C811.008 46.63 811.371 46.73 811.865 46.73C812.305 46.73 812.681 46.66 812.995 46.52C813.308 46.38 813.565 46.1967 813.765 45.97C813.971 45.7367 814.118 45.4767 814.205 45.19L814.565 46.46H814.125C814.018 46.88 813.845 47.2633 813.605 47.61C813.371 47.95 813.041 48.2233 812.615 48.43C812.188 48.63 811.628 48.73 810.935 48.73Z" fill="#505050"/>
<path d="M732.697 48.5H732.197V49H732.697V48.5ZM732.697 36.21V35.71H732.197V36.21H732.697ZM735.327 36.21H735.827V35.71H735.327V36.21ZM735.327 48.5V49H735.827V48.5H735.327ZM729.057 37.91H728.557V38.41H729.057V37.91ZM729.057 35.72V35.22H728.557V35.72H729.057ZM738.947 35.72H739.447V35.22H738.947V35.72ZM738.947 37.91V38.41H739.447V37.91H738.947ZM733.197 48.5V36.21H732.197V48.5H733.197ZM732.697 36.71H735.327V35.71H732.697V36.71ZM734.827 36.21V48.5H735.827V36.21H734.827ZM735.327 48H732.697V49H735.327V48ZM729.557 37.91V35.72H728.557V37.91H729.557ZM729.057 36.22H738.947V35.22H729.057V36.22ZM738.447 35.72V37.91H739.447V35.72H738.447ZM738.947 37.41H729.057V38.41H738.947V37.41ZM740.145 47.58L740.488 47.2162L740.488 47.2162L740.145 47.58ZM740.065 39.59L740.422 39.9405L740.422 39.9405L740.065 39.59ZM745.875 38.94L745.643 39.3827L745.643 39.3827L745.875 38.94ZM747.355 40.42L746.91 40.6473L746.913 40.6529L747.355 40.42ZM747.815 43.79L747.318 43.7376L747.317 43.7496L747.815 43.79ZM747.725 44.49V44.99H748.142L748.217 44.5794L747.725 44.49ZM745.405 44.49L744.906 44.4628L744.877 44.99H745.405V44.49ZM745.435 43.45L744.935 43.44V43.45H745.435ZM745.225 41.38L744.769 41.5848L744.771 41.5883L745.225 41.38ZM744.555 40.64L744.312 41.0771L744.312 41.0771L744.555 40.64ZM741.885 40.96L742.264 41.2859L742.264 41.2859L741.885 40.96ZM741.395 43.49H740.895V43.4986L740.895 43.5072L741.395 43.49ZM741.405 43.78H741.905V43.7714L741.905 43.7628L741.405 43.78ZM741.545 45.4L741.074 45.569L741.078 45.5795L741.545 45.4ZM742.035 46.08L741.711 46.4605L741.717 46.466L742.035 46.08ZM742.935 46.52L742.798 47.0008L742.8 47.0014L742.935 46.52ZM746.105 46.48L746.222 46.9661L746.226 46.9651L746.105 46.48ZM747.695 45.92L748.192 45.9741L748.288 45.0914L747.484 45.4669L747.695 45.92ZM747.475 47.94L747.717 48.3777L747.944 48.2522L747.972 47.9941L747.475 47.94ZM745.895 48.52L745.783 48.0328L745.776 48.0343L745.895 48.52ZM740.275 44.49H739.775V44.99H740.275V44.49ZM740.275 42.79V42.29H739.775V42.79H740.275ZM747.205 42.79H747.705V42.29H747.205V42.79ZM747.205 44.49V44.99H747.705V44.49H747.205ZM743.895 48.24C742.281 48.24 741.179 47.8675 740.488 47.2162L739.802 47.9438C740.751 48.8392 742.149 49.24 743.895 49.24V48.24ZM740.488 47.2162C739.796 46.5636 739.415 45.5926 739.415 44.22H738.415C738.415 45.7807 738.854 47.0497 739.802 47.9438L740.488 47.2162ZM739.415 44.22V42.94H738.415V44.22H739.415ZM739.415 42.94C739.415 41.5733 739.774 40.5994 740.422 39.9405L739.708 39.2395C738.823 40.1406 738.415 41.4 738.415 42.94H739.415ZM740.422 39.9405C741.066 39.2849 742.033 38.92 743.405 38.92V37.92C741.857 37.92 740.597 38.3351 739.708 39.2395L740.422 39.9405ZM743.405 38.92C744.336 38.92 745.074 39.0838 745.643 39.3827L746.108 38.4973C745.356 38.1028 744.448 37.92 743.405 37.92V38.92ZM745.643 39.3827C746.215 39.6832 746.632 40.103 746.91 40.6473L747.8 40.1927C747.425 39.457 746.855 38.8902 746.108 38.4973L745.643 39.3827ZM746.913 40.6529C747.2 41.1992 747.355 41.8754 747.355 42.7H748.355C748.355 41.7513 748.177 40.9074 747.797 40.1871L746.913 40.6529ZM747.355 42.7V43.05H748.355V42.7H747.355ZM747.355 43.05C747.355 43.2715 747.343 43.5007 747.318 43.7377L748.312 43.8423C748.341 43.5727 748.355 43.3085 748.355 43.05H747.355ZM747.317 43.7496C747.298 43.9815 747.27 44.1984 747.233 44.4006L748.217 44.5794C748.26 44.3416 748.292 44.0918 748.313 43.8304L747.317 43.7496ZM747.725 43.99H745.405V44.99H747.725V43.99ZM745.904 44.5172C745.925 44.1426 745.935 43.7868 745.935 43.45H744.935C744.935 43.7666 744.925 44.1041 744.906 44.4628L745.904 44.5172ZM745.935 43.46C745.942 43.1241 745.945 42.8207 745.945 42.55H744.945C744.945 42.8126 744.942 43.1092 744.935 43.44L745.935 43.46ZM745.945 42.55C745.945 42.0392 745.864 41.5738 745.68 41.1717L744.771 41.5883C744.88 41.8262 744.945 42.1408 744.945 42.55H745.945ZM745.681 41.1752C745.492 40.7547 745.196 40.4244 744.798 40.2029L744.312 41.0771C744.514 41.189 744.664 41.352 744.769 41.5848L745.681 41.1752ZM744.798 40.2029C744.402 39.9828 743.927 39.89 743.405 39.89V40.89C743.816 40.89 744.108 40.9639 744.312 41.0771L744.798 40.2029ZM743.405 39.89C742.629 39.89 741.959 40.1069 741.506 40.6341L742.264 41.2859C742.464 41.0531 742.808 40.89 743.405 40.89V39.89ZM741.506 40.6341C741.075 41.1351 740.895 41.8076 740.895 42.58H741.895C741.895 41.9524 742.042 41.5449 742.264 41.2859L741.506 40.6341ZM740.895 42.58V43.49H741.895V42.58H740.895ZM740.895 43.5072L740.905 43.7972L741.905 43.7628L741.895 43.4728L740.895 43.5072ZM740.905 43.78V44.55H741.905V43.78H740.905ZM740.905 44.55C740.905 44.9079 740.96 45.2491 741.074 45.5689L742.016 45.2311C741.944 45.0309 741.905 44.8054 741.905 44.55H740.905ZM741.078 45.5795C741.21 45.9226 741.425 46.2169 741.711 46.4604L742.36 45.6996C742.192 45.5565 742.08 45.3974 742.012 45.2205L741.078 45.5795ZM741.717 46.466C742.011 46.7079 742.379 46.881 742.798 47.0008L743.072 46.0392C742.745 45.9457 742.512 45.8254 742.353 45.694L741.717 46.466ZM742.8 47.0014C743.238 47.1245 743.761 47.18 744.355 47.18V46.18C743.816 46.18 743.392 46.1288 743.07 46.0386L742.8 47.0014ZM744.355 47.18C745.005 47.18 745.628 47.1093 746.222 46.9661L745.988 45.9939C745.476 46.1173 744.932 46.18 744.355 46.18V47.18ZM746.226 46.9651C746.816 46.8177 747.376 46.6205 747.906 46.3731L747.484 45.4669C747.014 45.6861 746.514 45.8623 745.984 45.9949L746.226 46.9651ZM747.198 45.8659L746.978 47.8859L747.972 47.9941L748.192 45.9741L747.198 45.8659ZM747.233 47.5023C746.835 47.7223 746.354 47.901 745.783 48.0328L746.007 49.0072C746.65 48.859 747.222 48.6511 747.717 48.3777L747.233 47.5023ZM745.776 48.0343C745.222 48.1699 744.596 48.24 743.895 48.24V49.24C744.661 49.24 745.368 49.1634 746.014 49.0057L745.776 48.0343ZM740.775 44.49V42.79H739.775V44.49H740.775ZM740.275 43.29H747.205V42.29H740.275V43.29ZM746.705 42.79V44.49H747.705V42.79H746.705ZM747.205 43.99H740.275V44.99H747.205V43.99ZM752.146 42.8L751.679 42.9777L752.126 44.1541L752.608 42.9915L752.146 42.8ZM751.496 41.09V40.59H750.771L751.029 41.2677L751.496 41.09ZM752.116 41.09V41.59H752.515L752.604 41.2006L752.116 41.09ZM753.096 39.22L753.442 39.5811L753.442 39.5811L753.096 39.22ZM755.536 38.58L755.443 39.0712L755.454 39.0733L755.465 39.075L755.536 38.58ZM755.916 38.66L756.415 38.6327L756.396 38.28L756.057 38.1803L755.916 38.66ZM756.056 41.22L755.905 41.6965L756.595 41.9161L756.555 41.1927L756.056 41.22ZM755.546 41.12L755.478 41.6153L755.486 41.6165L755.495 41.6173L755.546 41.12ZM753.196 41.53L752.931 41.106L752.928 41.1077L753.196 41.53ZM749.656 48.5H749.156V49H749.656V48.5ZM749.656 38.69V38.19H749.156V38.69H749.656ZM752.096 38.69L752.596 38.7083L752.615 38.19H752.096V38.69ZM751.986 41.7L751.486 41.6817L751.474 42.0363L751.804 42.1656L751.986 41.7ZM752.216 41.79H752.716V41.4487L752.398 41.3244L752.216 41.79ZM752.216 48.5V49H752.716V48.5H752.216ZM752.614 42.6223L751.964 40.9123L751.029 41.2677L751.679 42.9777L752.614 42.6223ZM751.496 41.59H752.116V40.59H751.496V41.59ZM752.604 41.2006C752.767 40.4798 753.055 39.9519 753.442 39.5811L752.75 38.8589C752.191 39.3948 751.825 40.1136 751.629 40.9794L752.604 41.2006ZM753.442 39.5811C753.798 39.24 754.317 39.04 755.066 39.04V38.04C754.135 38.04 753.341 38.2933 752.75 38.8589L753.442 39.5811ZM755.066 39.04C755.215 39.04 755.339 39.0515 755.443 39.0712L755.63 38.0888C755.453 38.0552 755.264 38.04 755.066 38.04V39.04ZM755.465 39.075C755.586 39.0922 755.689 39.1143 755.775 39.1397L756.057 38.1803C755.917 38.139 755.766 38.1078 755.607 38.085L755.465 39.075ZM755.417 38.6873L755.557 41.2473L756.555 41.1927L756.415 38.6327L755.417 38.6873ZM756.208 40.7435C756.021 40.6842 755.817 40.6453 755.598 40.6227L755.495 41.6173C755.662 41.6347 755.798 41.6624 755.905 41.6965L756.208 40.7435ZM755.614 40.6247C755.397 40.5946 755.17 40.58 754.936 40.58V41.58C755.129 41.58 755.309 41.592 755.478 41.6153L755.614 40.6247ZM754.936 40.58C754.181 40.58 753.505 40.7471 752.931 41.106L753.461 41.954C753.847 41.7129 754.331 41.58 754.936 41.58V40.58ZM752.928 41.1077C752.363 41.466 751.948 41.9724 751.684 42.6085L752.608 42.9915C752.798 42.5343 753.082 42.194 753.464 41.9523L752.928 41.1077ZM750.156 48.5V38.69H749.156V48.5H750.156ZM749.656 39.19H752.096V38.19H749.656V39.19ZM751.596 38.6717L751.486 41.6817L752.486 41.7183L752.596 38.7083L751.596 38.6717ZM751.804 42.1656L752.034 42.2556L752.398 41.3244L752.168 41.2344L751.804 42.1656ZM751.716 41.79V48.5H752.716V41.79H751.716ZM752.216 48H749.656V49H752.216V48ZM759.9 42.8L759.433 42.9777L759.88 44.1541L760.362 42.9915L759.9 42.8ZM759.25 41.09V40.59H758.525L758.783 41.2677L759.25 41.09ZM759.87 41.09V41.59H760.269L760.358 41.2006L759.87 41.09ZM760.85 39.22L761.196 39.5811L761.196 39.5811L760.85 39.22ZM763.29 38.58L763.196 39.0712L763.208 39.0733L763.219 39.075L763.29 38.58ZM763.67 38.66L764.169 38.6327L764.15 38.28L763.811 38.1803L763.67 38.66ZM763.81 41.22L763.658 41.6965L764.349 41.9161L764.309 41.1927L763.81 41.22ZM763.3 41.12L763.232 41.6153L763.24 41.6165L763.249 41.6173L763.3 41.12ZM760.95 41.53L760.685 41.106L760.682 41.1077L760.95 41.53ZM757.41 48.5H756.91V49H757.41V48.5ZM757.41 38.69V38.19H756.91V38.69H757.41ZM759.85 38.69L760.35 38.7083L760.369 38.19H759.85V38.69ZM759.74 41.7L759.24 41.6817L759.227 42.0363L759.558 42.1656L759.74 41.7ZM759.97 41.79H760.47V41.4487L760.152 41.3244L759.97 41.79ZM759.97 48.5V49H760.47V48.5H759.97ZM760.367 42.6223L759.717 40.9123L758.783 41.2677L759.433 42.9777L760.367 42.6223ZM759.25 41.59H759.87V40.59H759.25V41.59ZM760.358 41.2006C760.521 40.4798 760.809 39.9519 761.196 39.5811L760.504 38.8589C759.945 39.3948 759.579 40.1136 759.382 40.9794L760.358 41.2006ZM761.196 39.5811C761.552 39.24 762.071 39.04 762.82 39.04V38.04C761.889 38.04 761.095 38.2933 760.504 38.8589L761.196 39.5811ZM762.82 39.04C762.968 39.04 763.093 39.0515 763.196 39.0712L763.384 38.0888C763.207 38.0552 763.018 38.04 762.82 38.04V39.04ZM763.219 39.075C763.34 39.0922 763.443 39.1143 763.529 39.1397L763.811 38.1803C763.671 38.139 763.52 38.1078 763.361 38.085L763.219 39.075ZM763.171 38.6873L763.311 41.2473L764.309 41.1927L764.169 38.6327L763.171 38.6873ZM763.962 40.7435C763.775 40.6842 763.57 40.6453 763.351 40.6227L763.249 41.6173C763.416 41.6347 763.552 41.6624 763.658 41.6965L763.962 40.7435ZM763.368 40.6247C763.15 40.5946 762.924 40.58 762.69 40.58V41.58C762.883 41.58 763.063 41.592 763.232 41.6153L763.368 40.6247ZM762.69 40.58C761.935 40.58 761.259 40.7471 760.685 41.106L761.215 41.954C761.601 41.7129 762.085 41.58 762.69 41.58V40.58ZM760.682 41.1077C760.117 41.466 759.702 41.9724 759.438 42.6085L760.362 42.9915C760.551 42.5343 760.836 42.194 761.218 41.9523L760.682 41.1077ZM757.91 48.5V38.69H756.91V48.5H757.91ZM757.41 39.19H759.85V38.19H757.41V39.19ZM759.35 38.6717L759.24 41.6817L760.24 41.7183L760.35 38.7083L759.35 38.6717ZM759.558 42.1656L759.788 42.2556L760.152 41.3244L759.922 41.2344L759.558 42.1656ZM759.47 41.79V48.5H760.47V41.79H759.47ZM759.97 48H757.41V49H759.97V48ZM770.61 48.5L770.11 48.4813L770.09 49H770.61V48.5ZM770.7 46.1L771.199 46.1187L771.202 46.0315L771.176 45.9484L770.7 46.1ZM770.63 45.88H770.13V45.9576L770.153 46.0316L770.63 45.88ZM770.63 42.81H771.13L771.129 42.7986L770.63 42.81ZM770.62 42.37H770.119L770.12 42.3814L770.62 42.37ZM770.09 40.96L769.762 41.3381L769.766 41.3411L770.09 40.96ZM766.48 40.78L766.621 41.2595L766.625 41.2585L766.48 40.78ZM764.85 41.39L764.352 41.3364L764.257 42.2181L765.061 41.8431L764.85 41.39ZM765.07 39.35L764.838 38.9069L764.601 39.0307L764.572 39.2964L765.07 39.35ZM766.07 38.92L766.238 39.3909L766.242 39.3892L766.07 38.92ZM767.34 38.58L767.248 38.0884L767.248 38.0884L767.34 38.58ZM770.88 38.74L770.715 39.212L770.72 39.2138L770.88 38.74ZM772.2 39.55L771.832 39.8894L771.836 39.8931L772.2 39.55ZM772.92 40.82L772.44 40.9625L772.441 40.9643L772.92 40.82ZM773.14 48.5V49H773.64V48.5H773.14ZM765.17 48L764.823 48.3606L764.826 48.3629L765.17 48ZM765.29 43.53L765.595 43.9257L765.598 43.9235L765.29 43.53ZM768.08 42.58L768.147 43.0754L768.147 43.0754L768.08 42.58ZM770.86 42.2L771.358 42.1547L771.31 41.6338L770.792 41.7046L770.86 42.2ZM771.01 43.85L771.081 44.3449L771.55 44.277L771.508 43.8047L771.01 43.85ZM768.45 44.22L768.514 44.7158L768.521 44.7149L768.45 44.22ZM767.25 44.62L766.936 44.2306L766.931 44.235L767.25 44.62ZM767.24 46.43L766.903 46.7995L766.908 46.8046L766.914 46.8096L767.24 46.43ZM769.46 46.52L769.256 46.0635L769.256 46.0635L769.46 46.52ZM770.23 45.97L769.855 45.6385L769.855 45.6392L770.23 45.97ZM770.67 45.19L771.151 45.0536L770.685 43.4111L770.191 45.0453L770.67 45.19ZM771.03 46.46V46.96H771.691L771.511 46.3236L771.03 46.46ZM770.59 46.46V45.96H770.201L770.105 46.3369L770.59 46.46ZM770.07 47.61L769.658 47.3254L769.657 47.3271L770.07 47.61ZM769.08 48.43L769.292 48.8828L769.298 48.88L769.08 48.43ZM771.109 48.5187L771.199 46.1187L770.2 46.0813L770.11 48.4813L771.109 48.5187ZM771.176 45.9484L771.106 45.7284L770.153 46.0316L770.223 46.2516L771.176 45.9484ZM771.13 45.88V42.81H770.13V45.88H771.13ZM771.129 42.7986L771.119 42.3586L770.12 42.3814L770.13 42.8214L771.129 42.7986ZM771.12 42.37C771.12 41.6418 770.916 41.0061 770.413 40.5789L769.766 41.3411C769.969 41.5139 770.12 41.8182 770.12 42.37H771.12ZM770.417 40.5819C769.933 40.1633 769.213 40.01 768.38 40.01V41.01C769.133 41.01 769.553 41.1567 769.762 41.3381L770.417 40.5819ZM768.38 40.01C767.661 40.01 766.979 40.1061 766.334 40.3015L766.625 41.2585C767.167 41.0939 767.751 41.01 768.38 41.01V40.01ZM766.338 40.3005C765.73 40.4801 765.163 40.692 764.638 40.9369L765.061 41.8431C765.536 41.6214 766.056 41.4265 766.621 41.2595L766.338 40.3005ZM765.347 41.4436L765.567 39.4036L764.572 39.2964L764.352 41.3364L765.347 41.4436ZM765.301 39.7931C765.571 39.6523 765.882 39.5179 766.238 39.3909L765.901 38.4491C765.51 38.5888 765.155 38.741 764.838 38.9069L765.301 39.7931ZM766.242 39.3892C766.592 39.2604 766.987 39.154 767.431 39.0716L767.248 38.0884C766.758 38.1794 766.307 38.2996 765.897 38.4508L766.242 39.3892ZM767.431 39.0716C767.864 38.9912 768.336 38.95 768.85 38.95V37.95C768.283 37.95 767.749 37.9954 767.248 38.0884L767.431 39.0716ZM768.85 38.95C769.612 38.95 770.23 39.0426 770.715 39.212L771.044 38.268C770.423 38.0507 769.687 37.95 768.85 37.95V38.95ZM770.72 39.2138C771.211 39.3794 771.573 39.6093 771.832 39.8894L772.567 39.2106C772.172 38.784 771.655 38.474 771.039 38.2662L770.72 39.2138ZM771.836 39.8931C772.112 40.1862 772.315 40.5396 772.44 40.9625L773.399 40.6775C773.231 40.1138 772.953 39.6205 772.563 39.2069L771.836 39.8931ZM772.441 40.9643C772.571 41.3971 772.64 41.8876 772.64 42.44H773.64C773.64 41.8058 773.561 41.2162 773.398 40.6757L772.441 40.9643ZM772.64 42.44V48.5H773.64V42.44H772.64ZM773.14 48H770.61V49H773.14V48ZM767.4 48.23C766.505 48.23 765.904 48.0071 765.514 47.6371L764.826 48.3629C765.462 48.9662 766.347 49.23 767.4 49.23V48.23ZM765.516 47.6394C765.133 47.2717 764.91 46.7242 764.91 45.92H763.91C763.91 46.9158 764.193 47.755 764.823 48.3606L765.516 47.6394ZM764.91 45.92V45.64H763.91V45.92H764.91ZM764.91 45.64C764.91 44.7932 765.165 44.2582 765.595 43.9256L764.984 43.1344C764.241 43.7085 763.91 44.5802 763.91 45.64H764.91ZM765.598 43.9235C766.081 43.5448 766.906 43.2444 768.147 43.0754L768.012 42.0846C766.707 42.2623 765.671 42.5952 764.981 43.1365L765.598 43.9235ZM768.147 43.0754L770.927 42.6954L770.792 41.7046L768.012 42.0846L768.147 43.0754ZM770.362 42.2453L770.512 43.8953L771.508 43.8047L771.358 42.1547L770.362 42.2453ZM770.938 43.3551L768.378 43.7251L768.521 44.7149L771.081 44.3449L770.938 43.3551ZM768.385 43.7242C767.798 43.801 767.285 43.9491 766.936 44.2306L767.563 45.0094C767.694 44.9042 767.981 44.7857 768.514 44.7158L768.385 43.7242ZM766.931 44.235C766.556 44.5451 766.4 44.9856 766.4 45.47H767.4C767.4 45.2077 767.476 45.0816 767.569 45.005L766.931 44.235ZM766.4 45.47V45.57H767.4V45.47H766.4ZM766.4 45.57C766.4 46.0474 766.552 46.4797 766.903 46.7995L767.576 46.0605C767.474 45.967 767.4 45.8259 767.4 45.57H766.4ZM766.914 46.8096C767.279 47.1223 767.785 47.23 768.33 47.23V46.23C767.888 46.23 767.667 46.1377 767.565 46.0504L766.914 46.8096ZM768.33 47.23C768.821 47.23 769.271 47.1521 769.664 46.9765L769.256 46.0635C769.022 46.1679 768.718 46.23 768.33 46.23V47.23ZM769.664 46.9765C770.033 46.8113 770.351 46.5879 770.604 46.3008L769.855 45.6392C769.708 45.8054 769.512 45.9487 769.256 46.0635L769.664 46.9765ZM770.604 46.3015C770.856 46.0164 771.04 45.6933 771.148 45.3347L770.191 45.0453C770.126 45.2601 770.016 45.4569 769.855 45.6385L770.604 46.3015ZM770.189 45.3264L770.549 46.5964L771.511 46.3236L771.151 45.0536L770.189 45.3264ZM771.03 45.96H770.59V46.96H771.03V45.96ZM770.105 46.3369C770.013 46.7008 769.864 47.0291 769.658 47.3254L770.481 47.8946C770.756 47.4975 770.953 47.0592 771.074 46.5831L770.105 46.3369ZM769.657 47.3271C769.48 47.5853 769.222 47.8055 768.862 47.98L769.298 48.88C769.791 48.6412 770.192 48.3147 770.482 47.8929L769.657 47.3271ZM768.867 47.9773C768.531 48.135 768.051 48.23 767.4 48.23V49.23C768.134 49.23 768.775 49.125 769.292 48.8827L768.867 47.9773ZM779.122 35.72L779.585 35.5322L779.459 35.22H779.122V35.72ZM783.142 45.64L782.679 45.8278L782.805 46.14H783.142V45.64ZM783.272 45.64V46.14H783.782L783.772 45.6299L783.272 45.64ZM783.162 40.19H782.662L782.662 40.2001L783.162 40.19ZM783.162 35.72V35.22H782.662V35.72H783.162ZM785.672 35.72H786.172V35.22H785.672V35.72ZM785.672 48.5V49H786.172V48.5H785.672ZM782.052 48.5L781.589 48.6889L781.716 49H782.052V48.5ZM777.932 38.4L778.395 38.2111L778.268 37.9H777.932V38.4ZM777.802 38.4V37.9H777.292L777.302 38.4098L777.802 38.4ZM777.912 44.02H778.412L778.412 44.0102L777.912 44.02ZM777.912 48.5V49H778.412V48.5H777.912ZM775.392 48.5H774.892V49H775.392V48.5ZM775.392 35.72V35.22H774.892V35.72H775.392ZM778.659 35.9078L782.679 45.8278L783.605 45.4522L779.585 35.5322L778.659 35.9078ZM783.142 46.14H783.272V45.14H783.142V46.14ZM783.772 45.6299L783.662 40.1799L782.662 40.2001L782.772 45.6501L783.772 45.6299ZM783.662 40.19V35.72H782.662V40.19H783.662ZM783.162 36.22H785.672V35.22H783.162V36.22ZM785.172 35.72V48.5H786.172V35.72H785.172ZM785.672 48H782.052V49H785.672V48ZM782.515 48.3111L778.395 38.2111L777.469 38.5889L781.589 48.6889L782.515 48.3111ZM777.932 37.9H777.802V38.9H777.932V37.9ZM777.302 38.4098L777.412 44.0298L778.412 44.0102L778.302 38.3902L777.302 38.4098ZM777.412 44.02V48.5H778.412V44.02H777.412ZM777.912 48H775.392V49H777.912V48ZM775.892 48.5V35.72H774.892V48.5H775.892ZM775.392 36.22H779.122V35.22H775.392V36.22ZM788.855 47.6L788.501 47.9536L788.503 47.9551L788.855 47.6ZM788.855 39.6L788.501 39.2464L788.501 39.2464L788.855 39.6ZM795.755 39.6L795.4 39.952L795.401 39.9536L795.755 39.6ZM795.755 47.6L795.401 47.2464L795.4 47.248L795.755 47.6ZM793.835 46.12L793.46 45.789L793.457 45.7925L793.835 46.12ZM793.835 41.07L793.454 41.3944L793.46 41.401L793.835 41.07ZM790.775 41.07L790.397 40.7421L790.397 40.7425L790.775 41.07ZM790.775 46.12L790.397 46.4475L790.4 46.451L790.775 46.12ZM792.315 48.27C790.876 48.27 789.869 47.9019 789.207 47.2449L788.503 47.9551C789.413 48.8581 790.713 49.27 792.315 49.27V48.27ZM789.208 47.2464C788.548 46.5863 788.185 45.6195 788.185 44.27H787.185C787.185 45.8005 787.601 47.0537 788.501 47.9536L789.208 47.2464ZM788.185 44.27V42.94H787.185V44.27H788.185ZM788.185 42.94C788.185 41.583 788.548 40.6133 789.208 39.9536L788.501 39.2464C787.601 40.1467 787.185 41.4036 787.185 42.94H788.185ZM789.208 39.9536C789.871 39.2908 790.877 38.92 792.315 38.92V37.92C790.712 37.92 789.412 38.3359 788.501 39.2464L789.208 39.9536ZM792.315 38.92C793.745 38.92 794.744 39.2905 795.4 39.952L796.11 39.248C795.206 38.3362 793.911 37.92 792.315 37.92V38.92ZM795.401 39.9536C796.061 40.6133 796.425 41.583 796.425 42.94H797.425C797.425 41.4036 797.008 40.1467 796.108 39.2464L795.401 39.9536ZM796.425 42.94V44.27H797.425V42.94H796.425ZM796.425 44.27C796.425 45.6195 796.061 46.5863 795.401 47.2464L796.108 47.9536C797.008 47.0537 797.425 45.8005 797.425 44.27H796.425ZM795.4 47.248C794.751 47.9017 793.753 48.27 792.315 48.27V49.27C793.916 49.27 795.211 48.8583 796.11 47.952L795.4 47.248ZM792.315 47.22C793.086 47.22 793.747 46.9844 794.212 46.4475L793.457 45.7925C793.229 46.0556 792.877 46.22 792.315 46.22V47.22ZM794.209 46.451C794.671 45.9289 794.865 45.2201 794.865 44.4H793.865C793.865 45.0732 793.705 45.5111 793.46 45.789L794.209 46.451ZM794.865 44.4V42.81H793.865V44.4H794.865ZM794.865 42.81C794.865 41.9793 794.672 41.2626 794.209 40.739L793.46 41.401C793.704 41.6774 793.865 42.1207 793.865 42.81H794.865ZM794.215 40.7456C793.751 40.2007 793.088 39.96 792.315 39.96V40.96C792.874 40.96 793.225 41.126 793.454 41.3944L794.215 40.7456ZM792.315 39.96C791.536 39.96 790.868 40.1997 790.397 40.7421L791.152 41.3979C791.387 41.127 791.747 40.96 792.315 40.96V39.96ZM790.397 40.7425C789.943 41.266 789.755 41.9813 789.755 42.81H790.755C790.755 42.1187 790.913 41.674 791.152 41.3975L790.397 40.7425ZM789.755 42.81V44.4H790.755V42.81H789.755ZM789.755 44.4C789.755 45.218 789.944 45.9254 790.397 46.4475L791.152 45.7925C790.912 45.5146 790.755 45.0753 790.755 44.4H789.755ZM790.4 46.451C790.872 46.9854 791.538 47.22 792.315 47.22V46.22C791.744 46.22 791.384 46.0546 791.149 45.789L790.4 46.451ZM802.654 46.8V47.3H803.04L803.138 46.9259L802.654 46.8ZM804.764 38.69V38.19H804.377L804.28 38.5641L804.764 38.69ZM807.404 38.69L807.885 38.8272L808.066 38.19H807.404V38.69ZM804.604 48.5V49H804.981L805.085 48.6372L804.604 48.5ZM800.464 48.5L799.983 48.6377L800.087 49H800.464V48.5ZM797.654 38.69V38.19H796.99L797.173 38.8277L797.654 38.69ZM800.314 38.69L800.798 38.5641L800.7 38.19H800.314V38.69ZM802.424 46.8L801.94 46.9259L802.037 47.3H802.424V46.8ZM803.138 46.9259L805.248 38.8159L804.28 38.5641L802.17 46.6741L803.138 46.9259ZM804.764 39.19H807.404V38.19H804.764V39.19ZM806.923 38.5528L804.123 48.3628L805.085 48.6372L807.885 38.8272L806.923 38.5528ZM804.604 48H800.464V49H804.604V48ZM800.944 48.3623L798.134 38.5523L797.173 38.8277L799.983 48.6377L800.944 48.3623ZM797.654 39.19H800.314V38.19H797.654V39.19ZM799.83 38.8159L801.94 46.9259L802.908 46.6741L800.798 38.5641L799.83 38.8159ZM802.424 47.3H802.654V46.3H802.424V47.3ZM814.145 48.5L813.645 48.4813L813.626 49H814.145V48.5ZM814.235 46.1L814.734 46.1187L814.738 46.0315L814.711 45.9484L814.235 46.1ZM814.165 45.88H813.665V45.9576L813.688 46.0316L814.165 45.88ZM814.165 42.81H814.665L814.665 42.7986L814.165 42.81ZM814.155 42.37H813.655L813.655 42.3814L814.155 42.37ZM813.625 40.96L813.298 41.3381L813.301 41.3411L813.625 40.96ZM810.015 40.78L810.156 41.2595L810.16 41.2585L810.015 40.78ZM808.385 41.39L807.888 41.3364L807.793 42.2181L808.596 41.8431L808.385 41.39ZM808.605 39.35L808.373 38.9069L808.136 39.0307L808.108 39.2964L808.605 39.35ZM809.605 38.92L809.773 39.3909L809.778 39.3892L809.605 38.92ZM810.875 38.58L810.783 38.0884L810.783 38.0884L810.875 38.58ZM814.415 38.74L814.25 39.212L814.255 39.2138L814.415 38.74ZM815.735 39.55L815.368 39.8894L815.371 39.8931L815.735 39.55ZM816.455 40.82L815.975 40.9625L815.976 40.9643L816.455 40.82ZM816.675 48.5V49H817.175V48.5H816.675ZM808.705 48L808.358 48.3606L808.361 48.3629L808.705 48ZM808.825 43.53L809.13 43.9257L809.133 43.9235L808.825 43.53ZM811.615 42.58L811.682 43.0754L811.682 43.0754L811.615 42.58ZM814.395 42.2L814.893 42.1547L814.845 41.6338L814.327 41.7046L814.395 42.2ZM814.545 43.85L814.616 44.3449L815.086 44.277L815.043 43.8047L814.545 43.85ZM811.985 44.22L812.05 44.7158L812.056 44.7149L811.985 44.22ZM810.785 44.62L810.471 44.2306L810.466 44.235L810.785 44.62ZM810.775 46.43L810.438 46.7995L810.444 46.8046L810.449 46.8096L810.775 46.43ZM812.995 46.52L812.791 46.0635L812.791 46.0635L812.995 46.52ZM813.765 45.97L813.39 45.6385L813.39 45.6392L813.765 45.97ZM814.205 45.19L814.686 45.0536L814.22 43.4111L813.726 45.0453L814.205 45.19ZM814.565 46.46V46.96H815.226L815.046 46.3236L814.565 46.46ZM814.125 46.46V45.96H813.736L813.64 46.3369L814.125 46.46ZM813.605 47.61L813.194 47.3254L813.192 47.3271L813.605 47.61ZM812.615 48.43L812.827 48.8828L812.833 48.88L812.615 48.43ZM814.644 48.5187L814.734 46.1187L813.735 46.0813L813.645 48.4813L814.644 48.5187ZM814.711 45.9484L814.641 45.7284L813.688 46.0316L813.758 46.2516L814.711 45.9484ZM814.665 45.88V42.81H813.665V45.88H814.665ZM814.665 42.7986L814.655 42.3586L813.655 42.3814L813.665 42.8214L814.665 42.7986ZM814.655 42.37C814.655 41.6418 814.452 41.0061 813.948 40.5789L813.301 41.3411C813.505 41.5139 813.655 41.8182 813.655 42.37H814.655ZM813.952 40.5819C813.468 40.1633 812.748 40.01 811.915 40.01V41.01C812.668 41.01 813.088 41.1567 813.298 41.3381L813.952 40.5819ZM811.915 40.01C811.196 40.01 810.514 40.1061 809.87 40.3015L810.16 41.2585C810.702 41.0939 811.286 41.01 811.915 41.01V40.01ZM809.873 40.3005C809.265 40.4801 808.698 40.692 808.173 40.9369L808.596 41.8431C809.071 41.6214 809.591 41.4265 810.156 41.2595L809.873 40.3005ZM808.882 41.4436L809.102 39.4036L808.108 39.2964L807.888 41.3364L808.882 41.4436ZM808.836 39.7931C809.106 39.6523 809.417 39.5179 809.773 39.3909L809.437 38.4491C809.046 38.5888 808.69 38.741 808.373 38.9069L808.836 39.7931ZM809.778 39.3892C810.127 39.2604 810.523 39.154 810.966 39.0716L810.783 38.0884C810.294 38.1794 809.842 38.2996 809.432 38.4508L809.778 39.3892ZM810.966 39.0716C811.399 38.9912 811.871 38.95 812.385 38.95V37.95C811.818 37.95 811.284 37.9954 810.783 38.0884L810.966 39.0716ZM812.385 38.95C813.148 38.95 813.765 39.0426 814.25 39.212L814.58 38.268C813.958 38.0507 813.222 37.95 812.385 37.95V38.95ZM814.255 39.2138C814.746 39.3794 815.109 39.6093 815.368 39.8894L816.102 39.2106C815.707 38.784 815.19 38.474 814.575 38.2662L814.255 39.2138ZM815.371 39.8931C815.647 40.1862 815.85 40.5396 815.975 40.9625L816.934 40.6775C816.766 40.1138 816.489 39.6205 816.098 39.2069L815.371 39.8931ZM815.976 40.9643C816.106 41.3971 816.175 41.8876 816.175 42.44H817.175C817.175 41.8058 817.096 41.2162 816.933 40.6757L815.976 40.9643ZM816.175 42.44V48.5H817.175V42.44H816.175ZM816.675 48H814.145V49H816.675V48ZM810.935 48.23C810.041 48.23 809.439 48.0071 809.049 47.6371L808.361 48.3629C808.997 48.9662 809.882 49.23 810.935 49.23V48.23ZM809.051 47.6394C808.668 47.2717 808.445 46.7242 808.445 45.92H807.445C807.445 46.9158 807.728 47.755 808.358 48.3606L809.051 47.6394ZM808.445 45.92V45.64H807.445V45.92H808.445ZM808.445 45.64C808.445 44.7932 808.7 44.2582 809.13 43.9256L808.519 43.1344C807.776 43.7085 807.445 44.5802 807.445 45.64H808.445ZM809.133 43.9235C809.616 43.5448 810.441 43.2444 811.682 43.0754L811.547 42.0846C810.242 42.2623 809.207 42.5952 808.516 43.1365L809.133 43.9235ZM811.682 43.0754L814.462 42.6954L814.327 41.7046L811.547 42.0846L811.682 43.0754ZM813.897 42.2453L814.047 43.8953L815.043 43.8047L814.893 42.1547L813.897 42.2453ZM814.473 43.3551L811.913 43.7251L812.056 44.7149L814.616 44.3449L814.473 43.3551ZM811.92 43.7242C811.334 43.801 810.821 43.9491 810.471 44.2306L811.098 45.0094C811.229 44.9042 811.516 44.7857 812.05 44.7158L811.92 43.7242ZM810.466 44.235C810.091 44.5451 809.935 44.9856 809.935 45.47H810.935C810.935 45.2077 811.011 45.0816 811.104 45.005L810.466 44.235ZM809.935 45.47V45.57H810.935V45.47H809.935ZM809.935 45.57C809.935 46.0474 810.087 46.4797 810.438 46.7995L811.112 46.0605C811.009 45.967 810.935 45.8259 810.935 45.57H809.935ZM810.449 46.8096C810.814 47.1223 811.32 47.23 811.865 47.23V46.23C811.423 46.23 811.202 46.1377 811.1 46.0504L810.449 46.8096ZM811.865 47.23C812.356 47.23 812.806 47.1521 813.199 46.9765L812.791 46.0635C812.557 46.1679 812.254 46.23 811.865 46.23V47.23ZM813.199 46.9765C813.569 46.8113 813.886 46.5879 814.14 46.3008L813.39 45.6392C813.243 45.8054 813.048 45.9487 812.791 46.0635L813.199 46.9765ZM814.139 46.3015C814.392 46.0164 814.575 45.6933 814.683 45.3347L813.726 45.0453C813.661 45.2601 813.551 45.4569 813.39 45.6385L814.139 46.3015ZM813.724 45.3264L814.084 46.5964L815.046 46.3236L814.686 45.0536L813.724 45.3264ZM814.565 45.96H814.125V46.96H814.565V45.96ZM813.64 46.3369C813.548 46.7008 813.399 47.0291 813.194 47.3254L814.016 47.8946C814.291 47.4975 814.488 47.0592 814.609 46.5831L813.64 46.3369ZM813.192 47.3271C813.015 47.5853 812.757 47.8055 812.397 47.98L812.833 48.88C813.326 48.6412 813.728 48.3147 814.017 47.8929L813.192 47.3271ZM812.403 47.9773C812.066 48.135 811.586 48.23 810.935 48.23V49.23C811.67 49.23 812.31 49.125 812.827 48.8827L812.403 47.9773Z" fill="#9D9D9D"/>
</g>
<defs>
<radialGradient id="paint0_radial_902_2" cx="0" cy="0" r="1" gradientUnits="userSpaceOnUse" gradientTransform="translate(424 43.5) rotate(90) scale(43.5 424)">
<stop stop-color="white"/>
<stop offset="1" stop-color="white" stop-opacity="0"/>
</radialGradient>
<linearGradient id="paint1_linear_902_2" x1="29.5771" y1="31" x2="48.0771" y2="31" gradientUnits="userSpaceOnUse">
<stop stop-color="#AFAFAF"/>
<stop offset="1" stop-color="white"/>
</linearGradient>
<linearGradient id="paint2_linear_902_2" x1="34.5616" y1="39.1" x2="50.0767" y2="39.1" gradientUnits="userSpaceOnUse">
<stop stop-color="#AFAFAF"/>
<stop offset="1" stop-color="white"/>
</linearGradient>
<linearGradient id="paint3_linear_902_2" x1="38.4708" y1="46.1" x2="51.0768" y2="46.1" gradientUnits="userSpaceOnUse">
<stop stop-color="#AFAFAF"/>
<stop offset="1" stop-color="white"/>
</linearGradient>
<linearGradient id="paint4_linear_902_2" x1="236.577" y1="28.521" x2="236.577" y2="51.5" gradientUnits="userSpaceOnUse">
<stop stop-color="white"/>
<stop offset="0.708333" stop-color="#CCCCCC"/>
</linearGradient>
</defs>
</svg>
