<?xml version="1.0" standalone="no"?>
<!DOCTYPE svg PUBLIC "-//W3C//DTD SVG 20010904//EN"
 "http://www.w3.org/TR/2001/REC-SVG-20010904/DTD/svg10.dtd">
<svg version="1.0" xmlns="http://www.w3.org/2000/svg"
 width="260.000000pt" height="260.000000pt" viewBox="0 0 260.000000 260.000000"
 preserveAspectRatio="xMidYMid meet">
<metadata>
Created by potrace 1.14, written by Peter Selinger 2001-2017
</metadata>
<g transform="translate(0.000000,260.000000) scale(0.100000,-0.100000)"
fill="#000000" stroke="none">
<path d="M0 1300 l0 -1300 1300 0 1300 0 0 1300 0 1300 -1300 0 -1300 0 0
-1300z m1759 743 c7 -16 46 -84 86 -153 221 -379 326 -562 332 -576 5 -13 -7
-14 -82 -12 l-88 3 -161 281 c-89 154 -169 292 -179 307 l-17 27 -353 0 c-325
0 -353 -1 -363 -17 -6 -10 -86 -149 -178 -310 l-168 -292 175 -303 174 -303
446 -5 446 -5 -45 -78 -46 -77 -442 0 -441 1 -115 202 c-63 111 -163 284 -222
385 l-106 184 85 146 c47 81 146 254 221 384 l137 238 446 0 446 0 12 -27z
m-59 -509 c77 -135 129 -233 125 -242 -3 -8 -62 -114 -132 -234 l-126 -218
-270 2 -269 3 -133 228 -132 229 85 146 c47 81 106 184 131 229 l46 82 272 1
271 0 132 -226z m407 -361 c-2 -5 -46 -81 -96 -170 l-93 -163 -84 0 c-46 0
-84 2 -84 4 0 5 113 205 157 279 l34 57 85 0 c47 0 83 -3 81 -7z"/>
</g>
</svg>
